<svg width="16" height="16" viewBox="0 0 16 16" fill="none" xmlns="http://www.w3.org/2000/svg">
<path d="M6.46875 6.96875C7.31489 6.12261 8.68609 6.12261 9.53223 6.96875C10.3783 7.81489 10.3783 9.18612 9.53223 10.0322C8.68612 10.8783 7.31489 10.8783 6.46875 10.0322C5.62261 9.18609 5.62261 7.81489 6.46875 6.96875ZM8.74219 7.59961C8.28388 7.22137 7.60455 7.24701 7.17578 7.67578C6.72017 8.13139 6.72017 8.86958 7.17578 9.3252C7.63139 9.78081 8.36958 9.78081 8.8252 9.3252C9.25396 8.89643 9.27961 8.2171 8.90137 7.75879L8.8252 7.67578L8.74219 7.59961Z" fill="black"/>
<path d="M10.125 2.96875C10.9711 2.12261 12.3423 2.12261 13.1885 2.96875C14.0345 3.81489 14.0346 5.18612 13.1885 6.03223C12.3424 6.87833 10.9711 6.87828 10.125 6.03223C9.27886 5.18609 9.27886 3.81489 10.125 2.96875ZM12.3984 3.59961C11.9401 3.22137 11.2608 3.24701 10.832 3.67578C10.3764 4.13139 10.3764 4.86958 10.832 5.3252C11.2876 5.78081 12.0258 5.78081 12.4814 5.3252C12.9102 4.89643 12.9359 4.2171 12.5576 3.75879L12.4814 3.67578L12.3984 3.59961Z" fill="black"/>
<path d="M12 7.66797C13.1026 7.66797 14.199 8.04222 14.979 8.6662C15.1946 8.83871 15.2296 9.15335 15.0571 9.36898C14.8846 9.58461 14.57 9.61957 14.3543 9.44707C13.754 8.96685 12.8784 8.66797 12 8.66797C11.7239 8.66797 11.5 8.44411 11.5 8.16797C11.5 7.89183 11.7239 7.66797 12 7.66797Z" fill="black"/>
<path d="M2.81055 2.96875C3.65668 2.12261 5.02789 2.12261 5.87402 2.96875C6.72008 3.81489 6.72013 5.18612 5.87402 6.03223C5.02792 6.87833 3.65669 6.87828 2.81055 6.03223C1.96441 5.18609 1.96441 3.81489 2.81055 2.96875ZM5.08398 3.59961C4.62567 3.22137 3.94635 3.24701 3.51758 3.67578C3.06197 4.13139 3.06197 4.86958 3.51758 5.3252C3.97319 5.78081 4.71138 5.78081 5.16699 5.3252C5.59576 4.89643 5.6214 4.2171 5.24316 3.75879L5.16699 3.67578L5.08398 3.59961Z" fill="black"/>
<path d="M4.00067 7.66797C4.27681 7.66797 4.50067 7.89183 4.50067 8.16797C4.50067 8.44411 4.27681 8.66797 4.00067 8.66797C3.12228 8.66797 2.24663 8.96685 1.64635 9.44707C1.43072 9.61957 1.11607 9.58461 0.943568 9.36898C0.771064 9.15335 0.806024 8.83871 1.02166 8.6662C1.80163 8.04222 2.89811 7.66797 4.00067 7.66797Z" fill="black"/>
<path d="M8.00014 11.668C9.23989 11.668 10.4726 12.081 11.3667 12.7725C11.5851 12.9414 11.6253 13.2554 11.4563 13.4739C11.2874 13.6923 10.9734 13.7324 10.7549 13.5635C10.0377 13.0088 9.02048 12.668 8.00014 12.668C6.9798 12.668 5.96263 13.0088 5.24537 13.5635C5.02693 13.7324 4.7129 13.6923 4.54396 13.4739C4.37502 13.2554 4.41515 12.9414 4.63359 12.7725C5.52768 12.081 6.7604 11.668 8.00014 11.668Z" fill="black"/>
</svg>
