<svg width="24" height="24" viewBox="0 0 24 24" fill="none" xmlns="http://www.w3.org/2000/svg">
<path d="M12.9697 7.46967C13.2359 7.2034 13.6526 7.1792 13.9462 7.39705L14.0303 7.46967L18.0303 11.4697C18.2966 11.7359 18.3208 12.1526 18.1029 12.4462L18.0303 12.5303L14.0303 16.5303C13.7374 16.8232 13.2626 16.8232 12.9697 16.5303C12.7034 16.2641 12.6792 15.8474 12.8971 15.5538L12.9697 15.4697L16.439 12L12.9697 8.53033C12.7034 8.26406 12.6792 7.8474 12.8971 7.55379L12.9697 7.46967Z" fill="#989FAC"/>
<path d="M5.96967 6.46967C6.23594 6.2034 6.6526 6.1792 6.94621 6.39705L7.03033 6.46967L12.0303 11.4697C12.2966 11.7359 12.3208 12.1526 12.1029 12.4462L12.0303 12.5303L7.03033 17.5303C6.73744 17.8232 6.26256 17.8232 5.96967 17.5303C5.7034 17.2641 5.6792 16.8474 5.89705 16.5538L5.96967 16.4697L10.439 12L5.96967 7.53033C5.7034 7.26406 5.6792 6.8474 5.89705 6.55379L5.96967 6.46967Z" fill="#989FAC"/>
</svg>
