<svg width="283" height="278" viewBox="0 0 283 278" fill="none" xmlns="http://www.w3.org/2000/svg">
<path opacity="0.1" d="M132.507 219.116L149.038 232.407L89.1318 305.972L72.6014 292.681L132.507 219.116ZM242.666 5.79044L212.647 0L192.546 103.044L222.565 108.834L242.666 5.79044ZM149.038 309.92L167.949 314L184.479 239.119L165.568 235.039L149.038 309.92ZM175.486 104.36L144.145 2.23722L116.771 10.5281L148.112 112.65L175.486 104.36ZM193.604 237.277L215.292 305.709L231.954 300.445L210.266 232.013L193.604 237.277ZM135.02 120.283L56.2033 48.9556L39.4084 67.3797L118.225 138.707L135.02 120.415V120.283ZM218.862 224.511L259.593 262.544L270.305 251.226L229.574 213.194L218.862 224.511ZM235.789 189.374L232.88 202.797L280.091 212.93L283 199.507L235.789 189.374ZM112.539 152.789L4.76075 131.864L0 156.21L107.778 177.135L112.539 152.789ZM112.274 189.769L16.6626 226.485L24.9939 247.936L120.606 211.22L112.274 189.769ZM236.186 175.029L275.727 162.396L272.024 151.078L232.483 163.712L236.186 175.029ZM221.243 143.577L229.706 151.868L246.236 135.417L237.773 127.127L221.243 143.577Z" fill="url(#paint0_radial_5171_1758)"/>
<defs>
<radialGradient id="paint0_radial_5171_1758" cx="0" cy="0" r="1" gradientUnits="userSpaceOnUse" gradientTransform="translate(141.5 155.158) scale(177.073 176.214)">
<stop offset="0.3" stop-color="#C994F7"/>
<stop offset="1" stop-color="#4E02E4"/>
</radialGradient>
</defs>
</svg>
