<svg width="12" height="12" viewBox="0 0 12 12" fill="none" xmlns="http://www.w3.org/2000/svg">
  <path d="M6 1.125C6.18985 1.125 6.34675 1.26608 6.37158 1.44911L6.375 1.5V2.5C6.375 2.70711 6.20711 2.875 6 2.875C5.81015 2.875 5.65325 2.73392 5.62842 2.55089L5.625 2.5V1.5C5.625 1.29289 5.79289 1.125 6 1.125Z" fill="#4E02E4"/>
  <path d="M6 1.125C8.69261 1.125 10.875 3.30739 10.875 6C10.875 8.69261 8.69261 10.875 6 10.875C3.30739 10.875 1.125 8.69261 1.125 6C1.125 5.39634 1.23903 4.8045 1.45672 4.2413C1.53139 4.04812 1.74852 3.95205 1.9417 4.02672C2.13488 4.10139 2.23095 4.31852 2.15628 4.5117C1.9714 4.99 1.875 5.49036 1.875 6C1.875 8.27839 3.72161 10.125 6 10.125C8.27839 10.125 10.125 8.27839 10.125 6C10.125 3.72161 8.27839 1.875 6 1.875C5.79289 1.875 5.625 1.70711 5.625 1.5C5.625 1.29289 5.79289 1.125 6 1.125Z" fill="#4E02E4"/>
  <path d="M2.55466 2.5549C2.68779 2.42177 2.89612 2.40967 3.04293 2.51859L3.08499 2.5549L5.55999 5.0299C5.70644 5.17635 5.70644 5.41379 5.55999 5.56023C5.42686 5.69337 5.21852 5.70547 5.07172 5.59654L5.02966 5.56023L2.55466 3.08523C2.40821 2.93879 2.40821 2.70135 2.55466 2.5549Z" fill="#4E02E4"/>
  <path d="M5.02783 5.02783C5.5648 4.49086 6.4352 4.49086 6.97217 5.02783C7.50904 5.56481 7.5091 6.43523 6.97217 6.97217C6.43523 7.5091 5.56481 7.50904 5.02783 6.97217C4.49086 6.4352 4.49086 5.5648 5.02783 5.02783ZM6.39111 5.51221C6.14569 5.31484 5.78589 5.33032 5.55811 5.55811C5.31403 5.80218 5.31403 6.19782 5.55811 6.44189C5.80219 6.68587 6.19785 6.68594 6.44189 6.44189C6.66961 6.21418 6.68497 5.8543 6.48779 5.60889L6.44189 5.55811L6.39111 5.51221Z" fill="#4E02E4"/>
</svg>
