<svg width="144" height="52" viewBox="0 0 144 52" fill="none" xmlns="http://www.w3.org/2000/svg">
<g clip-path="url(#clip0_2412_1534)">
<path d="M21.9266 36.2867L24.662 38.4878L14.749 50.6706L12.0137 48.4694L21.9266 36.2867ZM40.155 0.958927L35.1876 0L31.8614 17.0645L36.8288 18.0235L40.155 0.958927ZM24.662 51.3244L27.7912 52L30.5266 39.5993L27.3973 38.9237L24.662 51.3244ZM29.0385 17.2825L23.8523 0.370495L19.3225 1.7435L24.5088 18.6555L29.0385 17.2825ZM32.0365 39.2942L35.6253 50.627L38.3825 49.7552L34.7937 38.4225L32.0365 39.2942ZM22.3424 19.9195L9.30021 8.10729L6.52108 11.1584L19.5633 22.9707L22.3424 19.9413V19.9195ZM36.2161 37.1802L42.956 43.4786L44.7285 41.6044L37.9886 35.306L36.2161 37.1802ZM39.0171 31.3613L38.5357 33.5842L46.3478 35.2624L46.8293 33.0394L39.0171 31.3613ZM18.6223 25.3026L0.787782 21.8374L0 25.8692L17.8345 29.3345L18.6223 25.3026ZM18.5785 31.4267L2.75724 37.5071L4.13586 41.0595L19.9571 34.979L18.5785 31.4267ZM39.0827 28.9857L45.6257 26.8935L45.013 25.0193L38.47 27.1115L39.0827 28.9857ZM36.61 23.777L38.0105 25.15L40.7458 22.4258L39.3453 21.0528L36.61 23.777Z" fill="url(#paint0_radial_2412_1534)"/>
<path d="M72.8476 36.3516H53.6563C53.5355 36.3516 53.4375 36.4491 53.4375 36.5695V37.7464C53.4375 37.8667 53.5355 37.9643 53.6563 37.9643H72.8476C72.9684 37.9643 73.0664 37.8667 73.0664 37.7464V36.5695C73.0664 36.4491 72.9684 36.3516 72.8476 36.3516Z" fill="black"/>
<path d="M97.5532 28.0273H76.9395C76.8187 28.0273 76.7207 28.1249 76.7207 28.2453V29.4221C76.7207 29.5425 76.8187 29.6401 76.9395 29.6401H97.5532C97.674 29.6401 97.772 29.5425 97.772 29.4221V28.2453C97.772 28.1249 97.674 28.0273 97.5532 28.0273Z" fill="black"/>
<path d="M120.377 35.7637H99.7638C99.6429 35.7637 99.5449 35.8612 99.5449 35.9816V37.311C99.5449 37.4314 99.6429 37.529 99.7638 37.529H120.377C120.498 37.529 120.596 37.4314 120.596 37.311V35.9816C120.596 35.8612 120.498 35.7637 120.377 35.7637Z" fill="black"/>
<path d="M127.533 33.3223H122.807C122.686 33.3223 122.588 33.4198 122.588 33.5402V34.7171C122.588 34.8374 122.686 34.935 122.807 34.935H127.533C127.654 34.935 127.752 34.8374 127.752 34.7171V33.5402C127.752 33.4198 127.654 33.3223 127.533 33.3223Z" fill="black"/>
<path d="M138.081 37.1582H130.51C130.389 37.1582 130.291 37.2558 130.291 37.3761V38.553C130.291 38.6734 130.389 38.7709 130.51 38.7709H138.081C138.202 38.7709 138.3 38.6734 138.3 38.553V37.3761C138.3 37.2558 138.202 37.1582 138.081 37.1582Z" fill="black"/>
<path d="M142.545 28.0273H130.51C130.389 28.0273 130.291 28.1249 130.291 28.2453V29.4221C130.291 29.5425 130.389 29.6401 130.51 29.6401H142.545C142.666 29.6401 142.764 29.5425 142.764 29.4221V28.2453C142.764 28.1249 142.666 28.0273 142.545 28.0273Z" fill="black"/>
<path d="M96.3715 32.2109H78.1212C78.0003 32.2109 77.9023 32.3085 77.9023 32.4289V33.6057C77.9023 33.7261 78.0003 33.8237 78.1212 33.8237H96.3715C96.4923 33.8237 96.5903 33.7261 96.5903 33.6057V32.4289C96.5903 32.3085 96.4923 32.2109 96.3715 32.2109Z" fill="black"/>
<path d="M87.8819 36.6797H84.1837C84.0628 36.6797 83.9648 36.7773 83.9648 36.8976V38.0745C83.9648 38.1949 84.0628 38.2924 84.1837 38.2924H87.8819C88.0027 38.2924 88.1007 38.1949 88.1007 38.0745V36.8976C88.1007 36.7773 88.0027 36.6797 87.8819 36.6797Z" fill="black"/>
<path d="M87.8819 40.6016H84.1837C84.0628 40.6016 83.9648 40.6991 83.9648 40.8195V41.9964C83.9648 42.1167 84.0628 42.2143 84.1837 42.2143H87.8819C88.0027 42.2143 88.1007 42.1167 88.1007 41.9964V40.8195C88.1007 40.6991 88.0027 40.6016 87.8819 40.6016Z" fill="black"/>
<path d="M96.3715 45.1777H78.1212C78.0003 45.1777 77.9023 45.2753 77.9023 45.3957V46.5725C77.9023 46.6929 78.0003 46.7905 78.1212 46.7905H96.3715C96.4923 46.7905 96.5903 46.6929 96.5903 46.5725V45.3957C96.5903 45.2753 96.4923 45.1777 96.3715 45.1777Z" fill="black"/>
<path d="M124.754 45.2219V34.1289H127.752V42.5631L124.754 45.2219Z" fill="black"/>
<path d="M126.011 26.8168L123.803 28.1912C123.7 28.2549 123.669 28.3894 123.733 28.4915L126.041 32.1694C126.105 32.2715 126.24 32.3025 126.342 32.2388L128.551 30.8644C128.653 30.8006 128.684 30.6662 128.62 30.5641L126.313 26.8862C126.249 26.7841 126.114 26.753 126.011 26.8168Z" fill="black"/>
<path d="M84.3154 29.248H86.1973L85.694 32.3428H83.834L84.3154 29.248Z" fill="black"/>
<path d="M78.1212 46.7913H80.6815V33.0176H77.9023V46.5733C77.9023 46.7041 78.0118 46.7913 78.1212 46.7913Z" fill="black"/>
<path d="M93.7895 33.0176V46.5733C93.7895 46.7041 93.8989 46.7913 94.0083 46.7913H96.3498C96.4592 46.7913 96.5686 46.6823 96.5686 46.5733V33.0176H93.7676H93.7895Z" fill="black"/>
<path d="M108.955 31.885C108.845 31.885 108.758 31.9939 108.758 32.1029V46.9445C108.758 47.0753 108.867 47.206 108.977 47.206H111.318C111.428 47.206 111.537 47.097 111.537 46.9445V31.9504C111.537 31.8196 111.428 31.7324 111.296 31.7324L108.933 31.8632H108.955V31.885Z" fill="black"/>
<path d="M85.2986 33.3223H82.6289V45.9627H85.2986V33.3223Z" fill="black"/>
<path d="M91.6463 33.3223H88.9766V45.9627H91.6463V33.3223Z" fill="black"/>
<path d="M124.754 45.1995L129.327 41.015C129.459 40.9061 129.656 40.9715 129.699 41.124L129.984 42.1919C129.984 42.2573 129.984 42.3227 129.94 42.3881L126.877 46.1802C126.811 46.2674 126.701 46.2891 126.592 46.2238L124.776 45.1995H124.754Z" fill="black"/>
<path d="M133.398 28.0273V38.7717H130.51C130.379 38.7717 130.291 38.6627 130.291 38.5537V28.2453C130.291 28.1363 130.379 28.0273 130.51 28.0273H133.398Z" fill="black"/>
<path d="M142.764 28.2453V38.5537C142.764 38.6627 142.676 38.7717 142.545 38.7717H139.875C139.744 38.7717 139.656 38.6627 139.656 38.5537V28.0273H142.545C142.676 28.0273 142.764 28.1363 142.764 28.2453Z" fill="black"/>
<path d="M133.485 40.2099L135.563 41.5829C135.673 41.6483 135.695 41.8008 135.607 41.888L131.449 47.4454C131.384 47.5326 131.231 47.5544 131.143 47.489L129.108 45.9199C129.02 45.8545 129.217 45.7019 129.283 45.6148L133.178 40.2535C133.244 40.1663 133.375 40.1445 133.463 40.2099H133.485Z" fill="black"/>
<path d="M137.403 41.4518L139.328 40.2314C139.416 40.166 139.547 40.1878 139.613 40.275L143.946 45.4619C144.033 45.5491 144.011 45.7016 143.902 45.767L141.823 47.3144C141.735 47.3797 141.582 47.3579 141.517 47.2708L137.337 41.7569C137.271 41.648 137.293 41.5172 137.381 41.4518H137.403Z" fill="black"/>
<path d="M100.968 28.9431V30.5123C100.968 30.5777 101.034 30.643 101.099 30.643C102.106 30.643 108.715 30.5777 112.413 30.4033C114.47 30.3161 118.037 29.7495 119.131 29.5751C119.197 29.5751 119.24 29.5098 119.24 29.4444V27.8752C119.24 27.788 119.153 27.7227 119.087 27.7445C117.577 28.0932 114.601 28.4201 112.106 28.5944C108.605 28.8341 102.106 28.8124 101.099 28.8124C100.093 28.8124 100.968 28.8777 100.968 28.9431Z" fill="black"/>
<path d="M78.4496 19.2005C77.9682 19.2005 77.3336 19.1351 76.8522 18.6556C76.3927 18.1979 76.1738 17.5223 76.1738 16.5634V12.6623C76.1738 12.5969 76.2614 12.5098 76.327 12.5098H77.1804C77.268 12.5098 77.3336 12.5751 77.3336 12.6623V16.5634C77.3336 17.0865 77.4649 17.5659 77.6181 17.7185C77.8588 17.98 78.3402 18.0236 78.7122 18.0236H78.8217C78.9092 18.0236 78.9748 18.089 78.9748 18.1762V19.1787H78.4715V19.2005H78.4496Z" fill="black"/>
<path d="M78.8659 14.8632H75.0145C74.927 14.8632 74.8613 14.8196 74.8613 14.7325V14.0351C74.8613 13.9697 74.9489 13.9043 75.0145 13.9043H78.8659C78.9534 13.9043 79.0191 13.9479 79.0191 14.0351V14.7325C79.0191 14.7978 78.9315 14.8632 78.8659 14.8632Z" fill="black"/>
<path d="M111.712 19.2012C110.048 19.2012 108.692 17.7846 108.801 16.1064C108.911 14.6462 110.092 13.4694 111.558 13.3822C112.368 13.3386 113.134 13.7309 113.725 14.2975C113.834 14.3629 114.009 14.6245 114.009 14.6245C114.053 14.668 114.053 14.777 114.009 14.8206L111.69 17.2833C111.646 17.3269 111.558 17.3269 111.515 17.3051L110.88 16.9346C110.771 16.891 110.771 16.7602 110.836 16.7167L112.696 14.886C112.521 14.6898 112.084 14.3629 111.318 14.5591C110.705 14.7116 110.158 15.2565 110.005 16.0411C109.808 17 110.661 18.1333 111.69 18.1333C112.718 18.1333 112.959 17.6756 113.221 17.0436C113.243 17 113.287 16.9346 113.375 16.9346H114.403C114.513 16.9346 114.578 17.0436 114.556 17.1307C114.053 18.5473 112.959 19.2447 111.755 19.2447L111.712 19.2012Z" fill="black"/>
<path d="M71.776 19.2012C70.1129 19.2012 68.7561 17.7846 68.8656 16.1064C68.975 14.6462 70.1566 13.4694 71.6228 13.3822C72.4325 13.3386 73.1765 13.7309 73.7892 14.2975C73.8986 14.3629 74.0737 14.6245 74.0737 14.6245C74.1174 14.668 74.1174 14.777 74.0737 14.8206L71.7541 17.2833C71.7103 17.3269 71.6228 17.3269 71.579 17.3051L70.9444 16.9346C70.835 16.891 70.835 16.7602 70.9007 16.7167L72.7607 14.886C72.5856 14.6898 72.148 14.3629 71.3821 14.5591C70.7694 14.7116 70.2223 15.2565 70.0691 16.0411C69.8722 17 70.7256 18.1333 71.7541 18.1333C72.7826 18.1333 73.0233 17.6756 73.2859 17.0436C73.3078 17 73.3734 16.9346 73.4391 16.9346H74.4676C74.577 16.9346 74.6426 17.0436 74.6207 17.1307C74.1174 18.5473 73.0233 19.2447 71.8197 19.2447L71.776 19.2012Z" fill="black"/>
<path d="M65.5826 19.2012C63.9195 19.2012 62.5628 17.7846 62.6722 16.1064C62.7816 14.6462 63.9633 13.4694 65.4294 13.3822C66.2391 13.3386 66.9831 13.7309 67.5958 14.2975C67.7053 14.3629 67.8803 14.6245 67.8803 14.6245C67.9241 14.668 67.9241 14.777 67.8803 14.8206L65.5607 17.2833C65.517 17.3269 65.4294 17.3269 65.3857 17.3051L64.7511 16.9346C64.6417 16.891 64.6417 16.7602 64.7073 16.7167L66.5674 14.886C66.3923 14.6898 65.9546 14.3629 65.1887 14.5591C64.576 14.7116 64.0289 15.2565 63.8758 16.0411C63.6788 17 64.5322 18.1333 65.5607 18.1333C66.5892 18.1333 66.8299 17.6756 67.0925 17.0436C67.1144 17 67.1801 16.9346 67.2457 16.9346H68.2742C68.3836 16.9346 68.4493 17.0436 68.4274 17.1307C67.9241 18.5473 66.8299 19.2447 65.6264 19.2447L65.5826 19.2012Z" fill="black"/>
<path d="M79.807 16.1722C79.7633 16.9786 80.0259 17.7414 80.5729 18.308C81.12 18.8746 81.864 19.2233 82.6518 19.2233C83.4396 19.2233 84.2055 18.8964 84.7526 18.2862V18.2426C84.7526 18.2426 84.7526 18.199 84.7307 18.199L83.8991 17.5234C83.8772 17.5016 83.8116 17.5016 83.7678 17.5234C83.4615 17.8285 83.0676 18.0029 82.6299 18.0029C82.1923 18.0029 81.7546 17.8067 81.4483 17.4798C81.1419 17.1529 80.9887 16.6735 81.0325 16.2376C81.12 15.5184 81.7108 14.9082 82.4549 14.821C82.9144 14.7774 83.3302 14.93 83.6584 15.1915C83.6803 15.2133 83.7459 15.1915 83.7897 15.1915L84.5775 14.4287C84.5775 14.4287 84.5994 14.3851 84.5994 14.3633C84.5994 14.3415 84.5994 14.3197 84.5775 14.3197C84.0523 13.8185 83.3739 13.5352 82.6299 13.5352C81.8859 13.5352 82.5205 13.5352 82.4767 13.5352C81.0544 13.6005 79.8727 14.7774 79.7852 16.194H79.8289V16.1722H79.807Z" fill="black"/>
<path d="M103.418 16.1722C103.375 16.9786 103.637 17.7414 104.184 18.308C104.731 18.8746 105.475 19.2233 106.263 19.2233C107.051 19.2233 107.817 18.8964 108.364 18.2862V18.2426C108.364 18.2426 108.364 18.199 108.342 18.199L107.51 17.5234C107.489 17.5016 107.423 17.5016 107.379 17.5234C107.073 17.8285 106.679 18.0029 106.241 18.0029C105.804 18.0029 105.366 17.8067 105.06 17.4798C104.753 17.1529 104.6 16.6735 104.644 16.2376C104.731 15.5184 105.322 14.9082 106.066 14.821C106.526 14.7774 106.942 14.93 107.27 15.1915C107.292 15.2133 107.357 15.2133 107.401 15.1915L108.189 14.4287C108.189 14.4287 108.211 14.3851 108.211 14.3633C108.211 14.3415 108.211 14.3197 108.189 14.3197C107.664 13.8185 106.985 13.5352 106.241 13.5352C105.497 13.5352 106.132 13.5352 106.088 13.5352C104.666 13.6005 103.484 14.7774 103.396 16.194H103.44V16.1722H103.418Z" fill="black"/>
<path d="M98.9758 19.1583H98.0786C97.991 19.1583 97.9473 19.0929 97.9473 19.0057V13.6662C97.9473 13.6008 97.991 13.5137 98.0786 13.5137H98.9539C99.0414 13.5137 99.1071 13.5573 99.1071 13.6662V19.0275C99.1071 19.0929 99.0633 19.1801 98.9758 19.1801C98.9758 19.1648 98.9758 19.1583 98.9758 19.1583Z" fill="black"/>
<path d="M102.63 16.4549V15.1037C102.63 14.755 102.543 13.5781 100.924 13.5781C99.3042 13.5781 100.07 13.7743 99.6981 14.1666C99.6762 14.1884 99.6543 14.2319 99.6543 14.2755V14.9511C99.6543 15.0819 99.8075 15.1473 99.895 15.0601C100.201 14.7768 100.464 14.6024 100.858 14.6024C101.252 14.6024 101.536 14.9729 101.536 15.5832V19.0484C101.536 19.1137 101.624 19.2009 101.689 19.2009H102.477C102.565 19.2009 102.63 19.1355 102.63 19.0484V16.4549H102.652V16.4767L102.63 16.4549Z" fill="black"/>
<path d="M86.7433 19.1575H85.8461C85.7586 19.1575 85.7148 19.0485 85.7148 18.9395V10.8976C85.7148 10.7669 85.7586 10.6797 85.8461 10.6797H86.7214C86.809 10.6797 86.8746 10.7887 86.8746 10.8758V18.9177C86.8746 19.0485 86.8309 19.1357 86.7433 19.1357V19.1575Z" fill="black"/>
<path d="M88.6247 13.5566C88.1432 13.5566 87.7712 13.7528 87.3992 14.1233C87.3773 14.1451 87.3555 14.1887 87.3555 14.2322V14.9079C87.3555 15.0386 87.5086 15.104 87.5962 15.0168C87.7931 14.8425 88.0995 14.6245 88.4058 14.6245C89.0623 14.6245 89.2812 15.1258 89.2812 15.5835V19.0487C89.2812 19.1141 89.3687 19.2012 89.4343 19.2012H90.2221C90.3096 19.2012 90.3753 19.1359 90.3753 19.0487V15.104C90.3753 14.7553 90.244 13.5784 88.6028 13.5784H88.6247V13.5566Z" fill="black"/>
<path d="M54.9035 19.1583H54.0063C53.9188 19.1583 53.875 19.0929 53.875 19.0057V13.6662C53.875 13.6008 53.9188 13.5137 54.0063 13.5137H54.8816C54.9691 13.5137 55.0348 13.5573 55.0348 13.6662V19.0275C55.0348 19.0929 54.991 19.1801 54.9035 19.1801V19.1583Z" fill="black"/>
<path d="M61.6207 19.1583H60.7673C60.6798 19.1583 60.6141 19.0929 60.6141 19.0057V15.5405C60.6141 15.0828 60.1764 14.5816 59.52 14.5816C58.8635 14.5816 58.3164 15.3008 58.3164 15.3008V14.429C58.7322 13.9495 58.9948 13.5137 59.8044 13.5137C60.6141 13.5137 60.9861 13.7752 61.3144 14.1021C61.5988 14.3854 61.7739 14.7995 61.7739 15.061V19.0057C61.7739 19.0711 61.6864 19.1583 61.6207 19.1583Z" fill="black"/>
<path d="M56.8298 13.5566C56.3483 13.5566 55.9763 13.7528 55.6043 14.1233C55.5824 14.1451 55.5605 14.1887 55.5605 14.2322V14.9079C55.5605 15.0386 55.7137 15.104 55.8013 15.0168C55.9982 14.8425 56.3046 14.6245 56.6109 14.6245C57.2674 14.6245 57.4862 15.1258 57.4862 15.5835V19.0487C57.4862 19.1141 57.5738 19.2012 57.6394 19.2012H58.4272C58.5147 19.2012 58.5804 19.1359 58.5804 19.0487V15.104C58.5804 14.7553 58.4491 13.5784 56.8079 13.5784H56.8298V13.5566Z" fill="black"/>
<path d="M115.212 18.5917C115.672 18.8968 116.394 19.2019 117.028 19.2019C117.663 19.2019 118.057 19.1366 118.407 18.9404C118.889 18.7225 119.173 18.3302 119.217 17.9161C119.414 16.2162 117.794 15.9983 117.116 15.9329C116.284 15.8239 116.175 15.7149 116.175 15.4316C116.175 15.1483 116.219 15.2137 116.306 15.1047C116.503 14.9086 116.853 14.7778 117.269 14.7996C118.057 14.7996 118.582 15.1483 118.91 15.4534C118.976 15.497 119.085 15.4534 119.085 15.388V14.3637C118.779 13.9279 117.707 13.6445 117.291 13.6445C116.438 13.6445 115.803 13.8407 115.387 14.2766C115.081 14.6035 114.928 14.9957 114.928 15.5188C114.972 16.761 116.109 17.0444 116.963 17.1533C117.597 17.2187 117.926 17.3495 118.057 17.5456C118.101 17.611 118.101 17.7418 118.057 17.8507C118.013 17.9815 117.838 18.0469 117.707 18.0687C117.182 18.243 116.219 18.1776 115.278 17.6328H115.234C115.234 17.6328 115.212 17.6328 115.212 17.6982V18.5699C115.212 18.5699 115.212 18.6135 115.234 18.6135H115.19V18.5917H115.212Z" fill="black"/>
<path d="M95.4958 19.1134H96.5899C96.5899 19.1134 96.6118 19.1134 96.6118 19.0916V15.5175C96.6118 14.3406 95.7146 13.5996 94.1828 13.5996C92.651 13.5996 92.3884 14.0355 91.9727 14.2752V15.5175H91.9945C92.6948 15.0162 93.4388 14.7547 94.1609 14.7547C94.8831 14.7547 94.9706 14.7547 95.277 15.0816C95.3864 15.1906 95.4301 15.3431 95.4301 15.4739V19.0481C95.4301 19.0481 95.4301 19.0699 95.452 19.0699H95.4958V19.1134Z" fill="black"/>
<path d="M95.4956 15.5391C95.3424 15.5827 94.9266 15.648 94.5327 15.6698H94.2045C93.4167 15.7134 92.6946 15.7352 92.1913 16.3454C91.8849 16.6723 91.7536 17.13 91.8192 17.6531C91.863 18.2415 92.1694 18.6774 92.6508 18.9389C92.9572 19.0915 93.3292 19.2004 93.7449 19.2004C94.1607 19.2004 94.7078 19.0479 94.861 18.9389C94.8828 18.9389 94.9047 18.8953 94.9047 18.8735V17.8928C94.9047 17.871 94.9047 17.8492 94.861 17.8274H94.7734C94.292 18.1107 93.5042 18.1543 93.1541 17.98C92.979 17.871 92.8696 17.762 92.8696 17.5441C92.8696 17.3262 92.8915 17.239 93.0009 17.1518C93.1979 16.9557 93.5699 16.8467 94.1826 16.8467C94.8828 16.8467 96.0208 16.498 96.152 16.0185L95.5174 15.5826H95.4956V15.5391Z" fill="black"/>
</g>
<defs>
<radialGradient id="paint0_radial_2412_1534" cx="0" cy="0" r="1" gradientUnits="userSpaceOnUse" gradientTransform="translate(23.4146 25.6949) scale(29.3011 29.1819)">
<stop offset="0.3" stop-color="#C994F7"/>
<stop offset="1" stop-color="#4E02E4"/>
</radialGradient>
<clipPath id="clip0_2412_1534">
<rect width="144" height="52" fill="white"/>
</clipPath>
</defs>
</svg>
