<svg width="135" height="49" viewBox="0 0 135 49" fill="none" xmlns="http://www.w3.org/2000/svg">
<g clip-path="url(#clip0_570_636)">
<path d="M20.5562 34.1932L23.1206 36.2674L13.8272 47.7473L11.2628 45.6731L20.5562 34.1932ZM37.6453 0.903604L32.9884 0L29.8701 16.08L34.527 16.9837L37.6453 0.903604ZM23.1206 48.3634L26.0543 49L28.6186 37.3148L25.685 36.6781L23.1206 48.3634ZM27.2236 16.2854L22.3615 0.34912L18.1149 1.64292L22.977 17.5792L27.2236 16.2854ZM30.0342 37.0272L33.3987 47.7062L35.9836 46.8847L32.6191 36.2058L30.0342 37.0272ZM20.946 18.7703L8.71894 7.63956L6.11352 10.5147L18.3406 21.6454L20.946 18.7909V18.7703ZM33.9526 35.0352L40.2713 40.9702L41.933 39.2041L35.6143 33.2691L33.9526 35.0352ZM36.5785 29.552L36.1272 31.6467L43.4511 33.228L43.9024 31.1333L36.5785 29.552ZM17.4584 23.8428L0.738546 20.5775L0 24.3768L16.7199 27.6421L17.4584 23.8428ZM17.4174 29.6136L2.58491 35.3433L3.87736 38.6907L18.7098 32.961L17.4174 29.6136ZM36.6401 27.3135L42.7741 25.342L42.1997 23.5759L36.0657 25.5474L36.6401 27.3135ZM34.3219 22.4053L35.6348 23.6991L38.1992 21.132L36.8863 19.8382L34.3219 22.4053Z" fill="url(#paint0_radial_570_636)"/>
<path d="M68.295 34.2549H50.3032C50.1899 34.2549 50.098 34.3468 50.098 34.4602V35.5692C50.098 35.6826 50.1899 35.7746 50.3032 35.7746H68.295C68.4083 35.7746 68.5001 35.6826 68.5001 35.5692V34.4602C68.5001 34.3468 68.4083 34.2549 68.295 34.2549Z" fill="white"/>
<path d="M91.4566 26.4102H72.1313C72.018 26.4102 71.9261 26.5021 71.9261 26.6155V27.7245C71.9261 27.8379 72.018 27.9299 72.1313 27.9299H91.4566C91.5699 27.9299 91.6617 27.8379 91.6617 27.7245V26.6155C91.6617 26.5021 91.5699 26.4102 91.4566 26.4102Z" fill="white"/>
<path d="M112.854 33.7002H93.5286C93.4153 33.7002 93.3235 33.7921 93.3235 33.9056V35.1583C93.3235 35.2717 93.4153 35.3636 93.5286 35.3636H112.854C112.967 35.3636 113.059 35.2717 113.059 35.1583V33.9056C113.059 33.7921 112.967 33.7002 112.854 33.7002Z" fill="white"/>
<path d="M119.562 31.4004H115.131C115.018 31.4004 114.926 31.4923 114.926 31.6058V32.7147C114.926 32.8281 115.018 32.9201 115.131 32.9201H119.562C119.676 32.9201 119.767 32.8281 119.767 32.7147V31.6058C119.767 31.4923 119.676 31.4004 119.562 31.4004Z" fill="white"/>
<path d="M129.451 35.0146H122.352C122.239 35.0146 122.147 35.1066 122.147 35.22V36.329C122.147 36.4424 122.239 36.5343 122.352 36.5343H129.451C129.564 36.5343 129.656 36.4424 129.656 36.329V35.22C129.656 35.1066 129.564 35.0146 129.451 35.0146Z" fill="white"/>
<path d="M133.636 26.4102H122.352C122.239 26.4102 122.147 26.5021 122.147 26.6155V27.7245C122.147 27.8379 122.239 27.9299 122.352 27.9299H133.636C133.749 27.9299 133.841 27.8379 133.841 27.7245V26.6155C133.841 26.5021 133.749 26.4102 133.636 26.4102Z" fill="white"/>
<path d="M90.3488 30.3525H73.2391C73.1258 30.3525 73.034 30.4445 73.034 30.5579V31.6669C73.034 31.7803 73.1258 31.8722 73.2391 31.8722H90.3488C90.4621 31.8722 90.5539 31.7803 90.5539 31.6669V30.5579C90.5539 30.4445 90.4621 30.3525 90.3488 30.3525Z" fill="white"/>
<path d="M82.3889 34.5625H78.9218C78.8085 34.5625 78.7167 34.6544 78.7167 34.7679V35.8768C78.7167 35.9903 78.8085 36.0822 78.9218 36.0822H82.3889C82.5022 36.0822 82.594 35.9903 82.594 35.8768V34.7679C82.594 34.6544 82.5022 34.5625 82.3889 34.5625Z" fill="white"/>
<path d="M82.3889 38.2598H78.9218C78.8085 38.2598 78.7167 38.3517 78.7167 38.4651V39.5741C78.7167 39.6875 78.8085 39.7795 78.9218 39.7795H82.3889C82.5022 39.7795 82.594 39.6875 82.594 39.5741V38.4651C82.594 38.3517 82.5022 38.2598 82.3889 38.2598Z" fill="white"/>
<path d="M90.3488 42.5723H73.2391C73.1258 42.5723 73.034 42.6642 73.034 42.7776V43.8866C73.034 44 73.1258 44.092 73.2391 44.092H90.3488C90.4621 44.092 90.5539 44 90.5539 43.8866V42.7776C90.5539 42.6642 90.4621 42.5723 90.3488 42.5723Z" fill="white"/>
<path d="M116.957 42.6132V32.1602H119.767V40.1078L116.957 42.6132Z" fill="white"/>
<path d="M118.135 25.2719L116.065 26.567C115.968 26.6271 115.939 26.7538 115.999 26.8499L118.163 30.3157C118.223 30.4119 118.349 30.4411 118.445 30.381L120.516 29.086C120.612 29.0259 120.641 28.8992 120.581 28.803L118.418 25.3373C118.358 25.2411 118.231 25.2118 118.135 25.2719Z" fill="white"/>
<path d="M79.0449 27.5596H80.8092L80.3374 30.4757H78.5936L79.0449 27.5596Z" fill="white"/>
<path d="M73.2391 44.0913H75.6394V31.1123H73.034V43.886C73.034 44.0092 73.1365 44.0913 73.2391 44.0913Z" fill="white"/>
<path d="M87.928 31.1123V43.886C87.928 44.0092 88.0306 44.0913 88.1331 44.0913H90.3283C90.4308 44.0913 90.5334 43.9887 90.5334 43.886V31.1123H87.9075H87.928Z" fill="white"/>
<path d="M102.145 30.0451C102.042 30.0451 101.96 30.1478 101.96 30.2505V44.2358C101.96 44.359 102.063 44.4823 102.165 44.4823H104.361C104.463 44.4823 104.566 44.3796 104.566 44.2358V30.1067C104.566 29.9835 104.463 29.9014 104.34 29.9014L102.124 30.0246L102.145 30.0451Z" fill="white"/>
<path d="M79.9681 31.4004H77.4652V43.3115H79.9681V31.4004Z" fill="white"/>
<path d="M85.9175 31.4004H83.4146V43.3115H85.9175V31.4004Z" fill="white"/>
<path d="M116.957 42.5926L121.245 38.6496C121.368 38.5469 121.552 38.6085 121.593 38.7523L121.86 39.7586C121.86 39.8202 121.86 39.8818 121.819 39.9434L118.947 43.5168C118.885 43.5989 118.783 43.6194 118.68 43.5578L116.977 42.5926H116.957Z" fill="white"/>
<path d="M125.06 26.4102V36.5346H122.352C122.229 36.5346 122.147 36.4319 122.147 36.3293V26.6155C122.147 26.5128 122.229 26.4102 122.352 26.4102H125.06Z" fill="white"/>
<path d="M133.841 26.6155V36.3293C133.841 36.4319 133.759 36.5346 133.636 36.5346H131.133C131.01 36.5346 130.928 36.4319 130.928 36.3293V26.4102H133.636C133.759 26.4102 133.841 26.5128 133.841 26.6155Z" fill="white"/>
<path d="M125.142 37.8893L127.091 39.1831C127.194 39.2447 127.215 39.3885 127.132 39.4706L123.235 44.7074C123.173 44.7896 123.029 44.8101 122.947 44.7485L121.039 43.2699C120.957 43.2083 121.142 43.0645 121.204 42.9824L124.855 37.9304C124.917 37.8483 125.04 37.8277 125.122 37.8893H125.142Z" fill="white"/>
<path d="M128.815 39.0599L130.62 37.9098C130.702 37.8482 130.825 37.8688 130.887 37.9509L134.949 42.8386C135.031 42.9207 135.01 43.0645 134.908 43.1261L132.959 44.5842C132.877 44.6458 132.733 44.6253 132.672 44.5431L128.753 39.3474C128.692 39.2447 128.712 39.1215 128.794 39.0599H128.815Z" fill="white"/>
<path d="M94.6569 27.2722V28.7508C94.6569 28.8124 94.7185 28.874 94.78 28.874C95.7237 28.874 101.919 28.8124 105.386 28.6481C107.315 28.566 110.659 28.032 111.685 27.8677C111.746 27.8677 111.787 27.8061 111.787 27.7445V26.2659C111.787 26.1837 111.705 26.1221 111.644 26.1427C110.228 26.4712 107.438 26.7793 105.099 26.9436C101.817 27.1695 95.7237 27.1489 94.78 27.1489C93.8363 27.1489 94.6569 27.2105 94.6569 27.2722Z" fill="white"/>
<path d="M73.5468 18.0918C73.0955 18.0918 72.5006 18.0302 72.0492 17.5784C71.6184 17.1471 71.4133 16.5105 71.4133 15.6069V11.9309C71.4133 11.8693 71.4748 11.7871 71.5569 11.7871H72.357C72.4185 11.7871 72.5006 11.8487 72.5006 11.9309V15.6069C72.5006 16.0998 72.6237 16.5516 72.7673 16.6953C73.0135 16.9418 73.4443 16.9828 73.793 16.9828H73.8956C73.9571 16.9828 74.0392 17.0444 74.0392 17.1266V18.0713H73.5674L73.5468 18.0918Z" fill="white"/>
<path d="M73.9366 14.0052H70.326C70.2644 14.0052 70.1824 13.9641 70.1824 13.8819V13.2248C70.1824 13.1632 70.2439 13.1016 70.326 13.1016H73.9366C73.9982 13.1016 74.0803 13.1426 74.0803 13.2248V13.8819C74.0803 13.9436 74.0187 14.0052 73.9366 14.0052Z" fill="white"/>
<path d="M104.709 18.0918C103.15 18.0918 101.878 16.7569 101.981 15.1756C102.083 13.7997 103.191 12.6907 104.566 12.6086C105.325 12.5675 106.043 12.9372 106.597 13.4711C106.699 13.5327 106.863 13.7792 106.863 13.7792C106.905 13.8202 106.905 13.9229 106.863 13.964L104.689 16.2846C104.648 16.3257 104.566 16.3257 104.525 16.3051L103.93 15.956C103.827 15.915 103.827 15.7917 103.889 15.7507L105.633 14.0256C105.468 13.8408 105.058 13.5327 104.34 13.7176C103.766 13.8613 103.253 14.3747 103.109 15.114C102.925 16.0176 103.725 17.0855 104.689 17.0855C105.653 17.0855 105.879 16.6543 106.125 16.0587C106.145 16.0176 106.186 15.956 106.269 15.956H107.233C107.335 15.956 107.397 16.0587 107.376 16.1409C106.905 17.4757 105.879 18.1329 104.75 18.1329L104.709 18.0918Z" fill="white"/>
<path d="M67.2897 18.0918C65.7306 18.0918 64.4586 16.7569 64.5612 15.1756C64.6638 13.7997 65.7716 12.6907 67.1461 12.6086C67.9052 12.5675 68.6232 12.9372 69.1771 13.4711C69.2797 13.5327 69.4438 13.7792 69.4438 13.7792C69.4849 13.8202 69.4849 13.9229 69.4438 13.964L67.2692 16.2846C67.2282 16.3257 67.1461 16.3257 67.1051 16.3051L66.5102 15.956C66.4076 15.915 66.4076 15.7917 66.4691 15.7507L68.2129 14.0256C68.0488 13.8408 67.6385 13.5327 66.9205 13.7176C66.346 13.8613 65.8332 14.3747 65.6896 15.114C65.5049 16.0176 66.305 17.0855 67.2692 17.0855C68.2334 17.0855 68.4591 16.6543 68.7053 16.0587C68.7258 16.0176 68.7668 15.956 68.8489 15.956H69.8131C69.9157 15.956 69.9772 16.0587 69.9567 16.1409C69.4849 17.4757 68.4591 18.1329 67.3308 18.1329L67.2897 18.0918Z" fill="white"/>
<path d="M61.4839 18.0918C59.9248 18.0918 58.6528 16.7569 58.7554 15.1756C58.858 13.7997 59.9658 12.6907 61.3403 12.6086C62.0994 12.5675 62.8174 12.9372 63.3713 13.4711C63.4739 13.5327 63.638 13.7792 63.638 13.7792C63.6791 13.8202 63.6791 13.9229 63.638 13.964L61.4634 16.2846C61.4224 16.3257 61.3403 16.3257 61.2993 16.3051L60.7044 15.956C60.6018 15.915 60.6018 15.7917 60.6633 15.7507L62.4071 14.0256C62.243 13.8408 61.8327 13.5327 61.1147 13.7176C60.5402 13.8613 60.0274 14.3747 59.8838 15.114C59.6991 16.0176 60.4992 17.0855 61.4634 17.0855C62.4276 17.0855 62.6533 16.6543 62.8995 16.0587C62.92 16.0176 62.961 15.956 63.0431 15.956H64.0073C64.1099 15.956 64.1714 16.0587 64.1509 16.1409C63.6791 17.4757 62.6533 18.1329 61.525 18.1329L61.4839 18.0918Z" fill="white"/>
<path d="M74.8188 15.2378C74.7778 15.9977 75.0239 16.7165 75.5368 17.2504C76.0497 17.7844 76.7472 18.1129 77.4858 18.1129C78.2243 18.1129 78.9629 17.8049 79.4552 17.2299V17.1888C79.4552 17.1888 79.4552 17.1477 79.4347 17.1477L78.6551 16.5111C78.6346 16.4906 78.5936 16.4906 78.532 16.5111C78.2448 16.7986 77.8756 16.9629 77.4652 16.9629C77.0549 16.9629 76.6446 16.7781 76.3574 16.47C76.0702 16.162 75.9266 15.7102 75.9882 15.2995C76.0497 14.6217 76.6241 14.0467 77.3216 13.9646C77.7525 13.9235 78.1422 14.0673 78.45 14.3137C78.4705 14.3342 78.5115 14.3137 78.5731 14.3137L79.3116 13.5949C79.3116 13.5949 79.3321 13.5539 79.3321 13.5333C79.3321 13.5128 79.3321 13.4922 79.3116 13.4922C78.8193 13.0199 78.1833 12.7529 77.4858 12.7529C76.7883 12.7529 77.3832 12.7529 77.3422 12.7529C76.0087 12.8145 74.9009 13.9235 74.8188 15.2584H74.8598L74.8188 15.2378Z" fill="white"/>
<path d="M96.9546 15.2378C96.9136 15.9977 97.1598 16.7165 97.6727 17.2504C98.1855 17.7844 98.8831 18.1129 99.6216 18.1129C100.36 18.1129 101.099 17.8049 101.591 17.2299V17.1888C101.591 17.1888 101.591 17.1477 101.571 17.1477L100.791 16.5111C100.77 16.4906 100.729 16.4906 100.668 16.5111C100.381 16.7986 100.011 16.9629 99.6011 16.9629C99.1908 16.9629 98.7805 16.7781 98.4933 16.47C98.2061 16.162 98.0624 15.7102 98.124 15.2995C98.1855 14.6217 98.76 14.0467 99.4575 13.9646C99.8883 13.9235 100.278 14.0673 100.586 14.3137C100.606 14.3342 100.647 14.3342 100.709 14.3137L101.447 13.5949C101.447 13.5949 101.468 13.5539 101.468 13.5333C101.468 13.5128 101.468 13.4922 101.447 13.4922C100.955 13.0199 100.319 12.7529 99.6216 12.7529C98.9241 12.7529 99.519 12.7529 99.478 12.7529C98.1445 12.8145 97.0367 13.9235 96.9546 15.2584H96.9957L96.9546 15.2378Z" fill="white"/>
<path d="M92.7901 18.0719H91.9285C91.8669 18.0719 91.8054 18.0103 91.8054 17.9281V12.8967C91.8054 12.8351 91.8464 12.7529 91.9285 12.7529H92.7491C92.8106 12.7529 92.8927 12.794 92.8927 12.8967V17.9487C92.8927 18.0103 92.8516 18.0924 92.7696 18.0924L92.7901 18.0719Z" fill="white"/>
<path d="M96.2161 15.5048V14.2315C96.2161 13.9029 96.1546 12.7939 94.6159 12.7939C93.0773 12.7939 93.8159 12.9788 93.4466 13.3484C93.4261 13.369 93.4055 13.41 93.4055 13.4511V14.0877C93.4055 14.211 93.5492 14.2726 93.6517 14.1904C93.9389 13.9235 94.2056 13.7592 94.5544 13.7592C94.9032 13.7592 95.1904 14.1083 95.1904 14.6833V17.9486C95.1904 18.0102 95.2519 18.0924 95.334 18.0924H96.0725C96.1341 18.0924 96.2161 18.0307 96.2161 17.9486V15.5048Z" fill="white"/>
<path d="M81.3221 18.0717H80.4605C80.3989 18.0717 80.3374 17.969 80.3374 17.8663V10.2884C80.3374 10.1652 80.3784 10.083 80.4605 10.083H81.2811C81.3426 10.083 81.4247 10.1857 81.4247 10.2678V17.8458C81.4247 17.969 81.3836 18.0512 81.3016 18.0512L81.3221 18.0717Z" fill="white"/>
<path d="M83.0864 12.7734C82.6351 12.7734 82.2863 12.9583 81.9171 13.3279C81.5478 13.6976 81.876 13.3895 81.876 13.4306V14.0672C81.876 14.1905 82.0196 14.2521 82.1222 14.1699C82.3068 14.0056 82.5941 13.8003 82.8813 13.8003C83.4967 13.8003 83.7019 14.2726 83.7019 14.7039V17.9692C83.7019 18.0308 83.7634 18.1129 83.8455 18.1129H84.584C84.6456 18.1129 84.7276 18.0513 84.7276 17.9692V14.2521C84.7276 13.9235 84.6045 12.8145 83.0659 12.8145H83.0864V12.7734Z" fill="white"/>
<path d="M51.4725 18.0719H50.6109C50.5494 18.0719 50.4878 18.0103 50.4878 17.9281V12.8967C50.4878 12.8351 50.5288 12.7529 50.6109 12.7529H51.4315C51.493 12.7529 51.5751 12.794 51.5751 12.8967V17.9487C51.5751 18.0103 51.5341 18.0924 51.452 18.0924L51.4725 18.0719Z" fill="white"/>
<path d="M57.7707 18.0719H56.9706C56.9091 18.0719 56.827 18.0103 56.827 17.9281V14.6628C56.827 14.2316 56.4167 13.7592 55.8012 13.7592C55.1858 13.7592 54.6729 14.4369 54.6729 14.4369V13.6155C55.0422 13.1637 55.3089 12.7529 56.0679 12.7529C56.827 12.7529 57.1757 12.9994 57.4835 13.3074C57.7502 13.5744 57.9143 13.9646 57.9143 14.211V17.9281C57.9143 17.9897 57.8527 18.0719 57.7707 18.0719Z" fill="white"/>
<path d="M53.2779 12.7734C52.8265 12.7734 52.4778 12.9583 52.1085 13.3279C51.7392 13.6976 52.0675 13.3895 52.0675 13.4306V14.0672C52.0675 14.1905 52.2111 14.2521 52.3137 14.1699C52.4983 14.0056 52.7855 13.8003 53.0727 13.8003C53.6882 13.8003 53.8933 14.2726 53.8933 14.7039V17.9692C53.8933 18.0308 53.9549 18.1129 54.0369 18.1129H54.7755C54.837 18.1129 54.9191 18.0513 54.9191 17.9692V14.2521C54.9191 13.9235 54.796 12.8145 53.2574 12.8145H53.2779V12.7734Z" fill="white"/>
<path d="M108.012 17.5172C108.443 17.8048 109.12 18.0923 109.715 18.0923C110.31 18.0923 110.679 18.0307 111.008 17.8458C111.459 17.6405 111.726 17.2708 111.767 16.8806C111.951 15.2788 110.433 15.0734 109.797 15.0118C109.018 14.9091 108.915 14.8064 108.915 14.5395C108.915 14.2725 108.956 14.3341 109.038 14.2314C109.223 14.0466 109.551 13.9234 109.941 13.9439C110.679 13.9439 111.172 14.2725 111.479 14.56C111.541 14.6011 111.643 14.56 111.643 14.4984V13.5332C111.356 13.1224 110.351 12.8555 109.961 12.8555C109.161 12.8555 108.566 13.0403 108.176 13.451C107.889 13.7591 107.746 14.1287 107.746 14.6216C107.787 15.7922 108.853 16.0592 109.654 16.1618C110.248 16.2234 110.556 16.3467 110.679 16.5315C110.72 16.5931 110.72 16.7163 110.679 16.819C110.638 16.9422 110.474 17.0038 110.351 17.0244C109.859 17.1887 108.956 17.1271 108.074 16.6136H108.033C108.033 16.6136 108.012 16.6136 108.012 16.6753V17.4967C108.012 17.4967 108.012 17.5378 108.033 17.5378H107.992L108.012 17.5172Z" fill="white"/>
<path d="M89.5282 18.0102H90.5539C90.5539 18.0102 90.5744 18.0102 90.5744 17.9896V14.6217C90.5744 13.5127 89.7128 12.8145 88.2973 12.8145C86.8817 12.8145 86.615 13.2252 86.2047 13.4511V14.5806C86.2047 14.595 86.2109 14.6011 86.2252 14.6011C86.8817 14.1288 87.5792 13.8823 88.2562 13.8823C88.9332 13.8823 89.0153 13.8823 89.3025 14.1904C89.4051 14.2931 89.4461 14.4368 89.4461 14.5601V17.928C89.4461 17.928 89.4461 17.9486 89.4666 17.9486H89.5076L89.5282 18.0102Z" fill="white"/>
<path d="M89.5282 14.6426C89.3846 14.6837 88.9743 14.7453 88.6255 14.7658H88.3178C87.5792 14.8069 86.9022 14.8274 86.4304 15.4024C86.1432 15.7105 86.0201 16.1417 86.0816 16.6346C86.1226 17.1891 86.4099 17.5998 86.8612 17.8463C87.1484 17.99 87.4972 18.0927 87.8869 18.0927C88.2767 18.0927 88.7896 17.9489 88.9332 17.8463C88.9537 17.8463 88.9743 17.8052 88.9743 17.7847V16.8605C88.9743 16.84 88.9743 16.8194 88.9332 16.7989H88.8717C88.4203 17.0659 87.6818 17.107 87.3536 16.9427C87.1894 16.84 87.0869 16.7373 87.0869 16.5319C87.0869 16.3266 87.1074 16.2444 87.2099 16.1623C87.3946 15.9774 87.7639 15.8748 88.3178 15.8748C88.9743 15.8748 90.041 15.5462 90.1641 15.0944L89.5692 14.6837H89.5487L89.5282 14.6426Z" fill="white"/>
</g>
<defs>
<radialGradient id="paint0_radial_570_636" cx="0" cy="0" r="1" gradientUnits="userSpaceOnUse" gradientTransform="translate(21.9512 24.2125) scale(27.4698 27.4983)">
<stop offset="0.3" stop-color="#C994F7"/>
<stop offset="1" stop-color="#4E02E4"/>
</radialGradient>
<clipPath id="clip0_570_636">
<rect width="135" height="49" fill="white"/>
</clipPath>
</defs>
</svg>
