<svg width="20" height="20" viewBox="0 0 20 20" fill="none" xmlns="http://www.w3.org/2000/svg">
<path d="M8.1582 10.3672C9.17565 9.34974 10.8252 9.3495 11.8418 10.3672C12.8578 11.3834 12.858 13.0322 11.8418 14.0498C10.8253 15.0663 9.17584 15.0663 8.1582 14.0498C7.14177 13.0334 7.14193 11.3848 8.1582 10.3672ZM10.8604 11.1621C10.3287 10.7232 9.53972 10.7523 9.04199 11.25C8.51331 11.7793 8.51377 12.6378 9.04199 13.166C9.57127 13.6945 10.4289 13.6941 10.957 13.166C11.4546 12.6679 11.4837 11.8794 11.0449 11.3477L10.957 11.251L10.8604 11.1621Z" fill="#4E02E4"/>
<path d="M5.83333 14.375C6.17851 14.375 6.45833 14.6548 6.45833 15C6.45833 15.3164 6.22321 15.5779 5.91814 15.6193L5.83333 15.625H5C4.65482 15.625 4.375 15.3452 4.375 15C4.375 14.6836 4.61013 14.4221 4.91519 14.3807L5 14.375H5.83333Z" fill="#4E02E4"/>
<path d="M15.0003 8.54102C15.3455 8.54102 15.6253 8.82084 15.6253 9.16602C15.6253 9.48243 15.3902 9.74392 15.0851 9.78531L15.0003 9.79102H14.167C13.8218 9.79102 13.542 9.51119 13.542 9.16602C13.542 8.8496 13.7771 8.58811 14.0822 8.54672L14.167 8.54102H15.0003Z" fill="#4E02E4"/>
<path d="M15.917 6.04102C17.1361 6.04119 18.1248 7.02994 18.125 8.24902V15.749C18.125 17.015 17.099 18.041 15.833 18.041H4.08301C2.86392 18.0408 1.87518 17.0521 1.875 15.833V8.24902C1.87518 7.02994 2.86392 6.04119 4.08301 6.04102H15.917ZM4.08301 7.29102C3.55428 7.29119 3.12518 7.72029 3.125 8.24902V15.833C3.12518 16.3617 3.55428 16.7908 4.08301 16.791H15.833C16.4087 16.791 16.875 16.3247 16.875 15.749V8.24902C16.8748 7.72029 16.4457 7.29119 15.917 7.29102H4.08301Z" fill="#4E02E4"/>
<path d="M15.8337 3.54102C16.1788 3.54102 16.4587 3.82084 16.4587 4.16602C16.4587 4.48243 16.2235 4.74392 15.9185 4.78531L15.8337 4.79102H4.16699C3.82181 4.79102 3.54199 4.51119 3.54199 4.16602C3.54199 3.8496 3.77712 3.58811 4.08218 3.54672L4.16699 3.54102H15.8337Z" fill="#4E02E4"/>
<path d="M15 1.04102C15.3452 1.04102 15.625 1.32084 15.625 1.66602C15.625 1.98243 15.3899 2.24392 15.0848 2.28531L15 2.29102H5C4.65482 2.29102 4.375 2.01119 4.375 1.66602C4.375 1.3496 4.61013 1.08811 4.91519 1.04672L5 1.04102H15Z" fill="#4E02E4"/>
</svg>
