<svg width="36" height="36" viewBox="0 0 36 36" fill="none" xmlns="http://www.w3.org/2000/svg">
<path d="M29.0377 17.9916C29.4771 17.5523 30.1894 17.5523 30.6287 17.9916C31.0281 18.391 31.0644 19.016 30.7377 19.4564L30.6287 19.5826L29.6764 20.535C29.237 20.9743 28.5247 20.9743 28.0854 20.535C27.686 20.1356 27.6497 19.5106 27.9764 19.0702L28.0854 18.944L29.0377 17.9916Z" fill="#6B7280"/>
<path d="M18.945 28.0854C19.3843 27.646 20.0966 27.646 20.536 28.0854C20.9354 28.4848 20.9717 29.1098 20.6449 29.5502L20.536 29.6764L19.5836 30.6287C19.1442 31.0681 18.4319 31.0681 17.9926 30.6287C17.5932 30.2293 17.5569 29.6043 17.8837 29.1639L17.9926 29.0377L18.945 28.0854Z" fill="#6B7280"/>
<path d="M24.3105 15.375C24.8801 15.375 25.3508 15.7982 25.4253 16.3473L25.4355 16.5V17.8469C25.4355 18.4682 24.9319 18.9719 24.3105 18.9719C23.741 18.9719 23.2703 18.5486 23.1958 17.9995L23.1855 17.8469V16.5C23.1855 15.8787 23.6892 15.375 24.3105 15.375Z" fill="#6B7280"/>
<path d="M17.9926 17.9916C18.392 17.5922 19.017 17.5559 19.4574 17.8827L19.5836 17.9916L20.536 18.944C20.9753 19.3833 20.9753 20.0956 20.536 20.535C20.1366 20.9344 19.5116 20.9707 19.0711 20.6439L18.945 20.535L17.9926 19.5826C17.5533 19.1433 17.5533 18.431 17.9926 17.9916Z" fill="#6B7280"/>
<path d="M17.8469 23.1855C18.4682 23.1855 18.9719 23.6892 18.9719 24.3105C18.9719 24.8801 18.5486 25.3508 17.9995 25.4253L17.8469 25.4355H16.5C15.8787 25.4355 15.375 24.9319 15.375 24.3105C15.375 23.741 15.7982 23.2703 16.3473 23.1958L16.5 23.1855H17.8469Z" fill="#6B7280"/>
<path d="M22.7803 22.4688C23.2937 22.0597 23.9841 21.9328 24.6162 22.1436L31.2881 24.3672C32.0123 24.6086 32.53 25.25 32.6133 26.0088C32.6965 26.7675 32.3304 27.5056 31.6758 27.8984L29.4297 29.2461C29.3544 29.2912 29.2913 29.3544 29.2461 29.4297L27.8984 31.6758C27.5057 32.3304 26.7676 32.6966 26.0088 32.6133C25.2499 32.53 24.6086 32.0123 24.3672 31.2881L22.1436 24.6162C21.9094 23.9138 22.0926 23.1388 22.6162 22.6152L22.7803 22.4688ZM26.2979 29.9668L27.3164 28.2715C27.5045 27.9579 27.7527 27.6857 28.0449 27.4688L28.2715 27.3164L29.9688 26.2979L24.4648 24.4629L26.2979 29.9668Z" fill="#6B7280"/>
<path d="M27.7358 27.7358C28.1352 27.3364 28.7602 27.3 29.2006 27.6268L29.3267 27.7358L31.8698 30.2788C32.3092 30.7182 32.3092 31.4305 31.8698 31.8698C31.4704 32.2692 30.8454 32.3055 30.405 31.9787L30.2788 31.8698L27.7358 29.3267C27.2964 28.8874 27.2964 28.1751 27.7358 27.7358Z" fill="#6B7280"/>
<path d="M24.75 3.375C27.3495 3.375 29.4739 5.40968 29.6173 7.97336L29.625 8.25V12C29.625 12.6213 29.1213 13.125 28.5 13.125C27.9305 13.125 27.4598 12.7018 27.3853 12.1527L27.375 12V8.25C27.375 6.87274 26.3143 5.74321 24.9653 5.6337L24.75 5.625H14.0575C13.2619 5.625 12.4952 5.90595 11.8901 6.41292L11.671 6.61352L8.11351 10.171C7.55091 10.7336 7.20744 11.4744 7.13806 12.2608L7.125 12.5575V27.75C7.125 29.1273 8.18567 30.2568 9.53471 30.3663L9.75 30.375H13.5C14.1213 30.375 14.625 30.8787 14.625 31.5C14.625 32.0695 14.2018 32.5402 13.6527 32.6147L13.5 32.625H9.75C7.15045 32.625 5.02613 30.5903 4.88272 28.0266L4.875 27.75V12.5575C4.875 11.1804 5.37997 9.8554 6.28735 8.83L6.52252 8.58003L10.08 5.02253C11.0538 4.04878 12.3478 3.46891 13.7145 3.38546L14.0575 3.375H24.75Z" fill="#6B7280"/>
<path d="M13.4998 3.41016C14.0693 3.41016 14.54 3.83339 14.6145 4.3825L14.6248 4.53516V9.74973C14.6248 11.536 13.2371 12.9982 11.4809 13.1169L11.2498 13.1247H6.03516C5.41384 13.1247 4.91016 12.621 4.91016 11.9997C4.91016 11.4302 5.33339 10.9595 5.8825 10.885L6.03516 10.8747H11.2498C11.8193 10.8747 12.29 10.4515 12.3645 9.90238L12.3748 9.74973V4.53516C12.3748 3.91384 12.8785 3.41016 13.4998 3.41016Z" fill="#6B7280"/>
</svg>
