<svg width="36" height="36" viewBox="0 0 36 36" fill="none" xmlns="http://www.w3.org/2000/svg">
<path d="M16.5 18.375C18.7782 18.375 20.625 20.2218 20.625 22.5V28.5C20.625 30.7782 18.7782 32.625 16.5 32.625H7.5C5.22183 32.625 3.375 30.7782 3.375 28.5V22.5C3.375 20.2218 5.22183 18.375 7.5 18.375H16.5ZM7.5 20.625C6.46447 20.625 5.625 21.4645 5.625 22.5V28.5C5.625 29.5355 6.46447 30.375 7.5 30.375H16.5C17.5355 30.375 18.375 29.5355 18.375 28.5V22.5C18.375 21.4645 17.5355 20.625 16.5 20.625H7.5Z" fill="#6B7280"/>
<path d="M21.9425 3.375C23.3196 3.375 24.6446 3.87997 25.67 4.78735L25.92 5.02252L29.4775 8.58003C30.4512 9.55378 31.0311 10.8478 31.1145 12.2145L31.125 12.5575V27.75C31.125 30.3495 29.0903 32.4739 26.5266 32.6173L26.25 32.625H24C23.3787 32.625 22.875 32.1213 22.875 31.5C22.875 30.9305 23.2982 30.4598 23.8473 30.3853L24 30.375H26.25C27.6273 30.375 28.7568 29.3143 28.8663 27.9653L28.875 27.75V12.5575C28.875 11.7619 28.594 10.9952 28.0871 10.3901L27.8865 10.171L24.329 6.61351C23.7664 6.05091 23.0256 5.70744 22.2392 5.63806L21.9425 5.625H11.25C9.87274 5.625 8.74321 6.68567 8.6337 8.03471L8.625 8.25V15C8.625 15.6213 8.12132 16.125 7.5 16.125C6.93046 16.125 6.45976 15.7018 6.38527 15.1527L6.375 15V8.25C6.375 5.65045 8.40968 3.52613 10.9734 3.38272L11.25 3.375H21.9425Z" fill="#6B7280"/>
<path d="M22.5 3.41016C23.0695 3.41016 23.5402 3.83339 23.6147 4.3825L23.625 4.53516V9.74973C23.625 10.3193 24.0482 10.79 24.5973 10.8645L24.75 10.8747H29.9646C30.586 10.8747 31.0896 11.3784 31.0896 11.9997C31.0896 12.5693 30.6664 13.04 30.1173 13.1145L29.9646 13.1247H24.75C22.9637 13.1247 21.5015 11.737 21.3828 9.9808L21.375 9.74973V4.53516C21.375 3.91384 21.8787 3.41016 22.5 3.41016Z" fill="#6B7280"/>
<path d="M7.63869 23.4929C7.89552 22.9846 8.48553 22.7553 9.00924 22.9364L9.15012 22.9961L11.7606 24.315C11.8903 24.3793 12.038 24.3921 12.1709 24.3556L12.2672 24.319L14.8855 22.9961C15.4401 22.7159 16.1168 22.9384 16.3969 23.4929C16.6538 24.0013 16.4883 24.6122 16.0318 24.9264L15.9001 25.0044L13.2738 26.3312C12.5616 26.684 11.7378 26.7193 10.9974 26.4342L10.754 26.3273L8.13552 25.0044C7.58096 24.7242 7.35852 24.0475 7.63869 23.4929Z" fill="#6B7280"/>
</svg>
