<svg width="32" height="32" viewBox="0 0 32 32" fill="none" xmlns="http://www.w3.org/2000/svg">
<path d="M14 7C14.5523 7 15 7.44772 15 8V17H24C24.5063 17 24.925 17.3762 24.9912 17.8643L25 18C25 24.075 20.075 29 14 29C7.92505 29 3 24.075 3 18C3 11.925 7.92505 7 14 7ZM12.7529 9.08594C8.37273 9.69317 5 13.4528 5 18C5 22.9704 9.02962 27 14 27C18.5472 27 22.3068 23.6273 22.9141 19.2471L22.9424 19H14C13.4937 19 13.075 18.6238 13.0088 18.1357L13 18V9.05469L12.7529 9.08594Z" fill="#4E02E4" fill-opacity="0.5"/>
<path d="M18.6665 3C24.3733 3 28.9993 7.62621 28.9995 13.333C28.9995 13.8853 28.5518 14.333 27.9995 14.333H18.6665C18.1142 14.333 17.6665 13.8853 17.6665 13.333V4C17.6665 3.44772 18.1142 3 18.6665 3ZM19.6665 12.333H26.939L26.9136 12.1289C26.3868 8.49085 23.5096 5.61389 19.8716 5.08691L19.6665 5.05957V12.333Z" fill="#4E02E4" fill-opacity="0.5"/>
</svg>
