<svg width="12" height="12" viewBox="0 0 12 12" fill="none" xmlns="http://www.w3.org/2000/svg">
<g clip-path="url(#clip0_5937_3778)">
<path fill-rule="evenodd" clip-rule="evenodd" d="M6 0C7.5913 0 9.11742 0.632141 10.2426 1.75736C11.3679 2.88258 12 4.4087 12 6C12 7.5913 11.3679 9.11742 10.2426 10.2426C9.11742 11.3679 7.5913 12 6 12C4.4087 12 2.88258 11.3679 1.75736 10.2426C0.632141 9.11742 0 7.5913 0 6C0 4.4087 0.632141 2.88258 1.75736 1.75736C2.88258 0.632141 4.4087 0 6 0Z" fill="#4E02E4" fill-opacity="0.2"/>
<path fill-rule="evenodd" clip-rule="evenodd" d="M3.92921 3.36566C3.81158 3.36199 3.69441 3.38198 3.58466 3.42446C3.47491 3.46694 3.37481 3.53103 3.29031 3.61294C3.2058 3.69484 3.13861 3.79289 3.09273 3.90126C3.04684 4.00963 3.0232 4.12612 3.0232 4.24381C3.0232 4.36149 3.04684 4.47798 3.09273 4.58635C3.13861 4.69472 3.2058 4.79277 3.29031 4.87468C3.37481 4.95658 3.47491 5.02068 3.58466 5.06315C3.69441 5.10563 3.81158 5.12562 3.92921 5.12195H3.93178C4.15993 5.11449 4.37621 5.01854 4.53484 4.8544C4.69347 4.69026 4.78199 4.47083 4.78166 4.24256C4.78132 4.01429 4.69216 3.79512 4.53305 3.63145C4.37394 3.46777 4.15737 3.37245 3.92921 3.36566ZM7.19235 4.24423C7.19235 4.07075 7.24377 3.90115 7.3401 3.75687C7.43643 3.61259 7.57336 3.50009 7.73359 3.43358C7.89382 3.36707 8.07017 3.34954 8.24036 3.3832C8.41055 3.41686 8.56694 3.5002 8.6898 3.62269C8.81265 3.74519 8.89645 3.90134 8.9306 4.07143C8.96476 4.24152 8.94774 4.41792 8.88171 4.57834C8.81567 4.73877 8.70357 4.87603 8.55957 4.97278C8.41557 5.06953 8.24612 5.12144 8.07264 5.12195H8.07092C7.95555 5.12206 7.84128 5.09945 7.73464 5.0554C7.62801 5.01135 7.53109 4.94673 7.44943 4.86523C7.36777 4.78372 7.30296 4.68693 7.2587 4.58038C7.21444 4.47383 7.19247 4.35961 7.19235 4.24423ZM3.5915 6.65109C3.5541 6.51441 3.46407 6.39812 3.34112 6.32767C3.21817 6.25722 3.07232 6.23835 2.93549 6.2752C2.79866 6.31204 2.68201 6.40159 2.61105 6.52425C2.5401 6.64691 2.52064 6.79269 2.55692 6.92966C2.76142 7.68682 3.20967 8.35552 3.83236 8.83234C4.45505 9.30917 5.21749 9.56756 6.00178 9.56756C6.78607 9.56756 7.54851 9.30917 8.1712 8.83234C8.79389 8.35552 9.24215 7.68682 9.44664 6.92966C9.48292 6.79269 9.46346 6.64691 9.39251 6.52425C9.32156 6.40159 9.2049 6.31204 9.06807 6.2752C8.93124 6.23835 8.78539 6.25722 8.66244 6.32767C8.5395 6.39812 8.44947 6.51441 8.41207 6.65109C8.26885 7.18073 7.95516 7.64845 7.51949 7.98195C7.08383 8.31545 6.55044 8.49617 6.00178 8.49617C5.45312 8.49617 4.91974 8.31545 4.48407 7.98195C4.04841 7.64845 3.73472 7.18073 3.5915 6.65109Z" fill="#4E02E4"/>
</g>
<defs>
<clipPath id="clip0_5937_3778">
<rect width="12" height="12" fill="white"/>
</clipPath>
</defs>
</svg>
