<svg width="25" height="24" viewBox="0 0 25 24" fill="none" xmlns="http://www.w3.org/2000/svg">
<path d="M9.97461 1.34863C10.8614 -0.449521 13.4269 -0.449505 14.3135 1.34863L16.7529 6.2959L22.2129 7.09082C24.1318 7.36999 24.9356 9.65821 23.6895 11.0752L23.5527 11.2178L19.6016 15.0654L20.5342 20.502C20.862 22.4137 18.931 23.8863 17.1973 23.1348L17.0244 23.0527L12.1436 20.4854L7.2627 23.0518C5.54508 23.9557 3.54661 22.5724 3.72656 20.6914L3.75195 20.502L4.68359 15.0654L0.733398 11.2178C-0.654854 9.86467 0.0396658 7.54112 1.87988 7.12695L2.07422 7.09082L7.53223 6.2959L9.97461 1.34863ZM12.5195 2.2334C12.3663 1.92255 11.9222 1.92244 11.7686 2.2334L9.09375 7.65332C8.94816 7.94835 8.66637 8.15275 8.34082 8.2002L2.3623 9.07031C2.0182 9.12037 1.88039 9.5428 2.12891 9.78516L6.45703 14C6.69291 14.2297 6.80078 14.5612 6.74512 14.8857L5.72363 20.8398C5.66495 21.1821 6.02366 21.4435 6.33105 21.2822L11.6777 18.4727C11.9689 18.3196 12.3172 18.3196 12.6084 18.4727L17.9551 21.2812C18.2628 21.4427 18.6221 21.1818 18.5635 20.8398L17.542 14.8857C17.4863 14.5612 17.5942 14.2297 17.8301 14L22.1572 9.78516C22.4064 9.54208 22.2695 9.12047 21.9248 9.07031L15.9463 8.2002C15.6206 8.15283 15.339 7.94852 15.1934 7.65332L12.5195 2.2334Z" fill="#4E02E4" fill-opacity="0.5"/>
</svg>
