<svg width="20" height="20" viewBox="0 0 20 20" fill="none" xmlns="http://www.w3.org/2000/svg">
<path d="M12.1914 1.875C13.0199 1.87513 13.8145 2.20426 14.4004 2.79004L16.377 4.7666C16.963 5.35265 17.292 6.14776 17.292 6.97656V15C17.292 16.7259 15.8929 18.125 14.167 18.125H5.83398C4.10809 18.125 2.70898 16.7259 2.70898 15V5C2.70898 3.27411 4.10809 1.875 5.83398 1.875H12.1914ZM5.83398 3.125C4.79845 3.125 3.95898 3.96447 3.95898 5V15C3.95898 16.0355 4.79845 16.875 5.83398 16.875H14.167C15.2025 16.875 16.042 16.0355 16.042 15V6.97656C16.042 6.47928 15.8448 6.00202 15.4932 5.65039L13.5166 3.67383C13.1651 3.32247 12.6884 3.12513 12.1914 3.125H5.83398Z" fill="#4E02E4"/>
<path d="M13.3327 13.543C13.6779 13.543 13.9577 13.8228 13.9577 14.168C13.9577 14.4844 13.7226 14.7459 13.4175 14.7873L13.3327 14.793H6.66602C6.32084 14.793 6.04102 14.5131 6.04102 14.168C6.04102 13.8516 6.27614 13.5901 6.58121 13.5487L6.66602 13.543H13.3327Z" fill="#4E02E4"/>
<path d="M13.3327 10.625C13.6779 10.625 13.9577 10.9048 13.9577 11.25C13.9577 11.5664 13.7226 11.8279 13.4175 11.8693L13.3327 11.875H6.66602C6.32084 11.875 6.04102 11.5952 6.04102 11.25C6.04102 10.9336 6.27614 10.6721 6.58121 10.6307L6.66602 10.625H13.3327Z" fill="#4E02E4"/>
<path d="M9.16602 7.70703C9.51119 7.70703 9.79102 7.98685 9.79102 8.33203C9.79102 8.64844 9.55589 8.90994 9.25082 8.95133L9.16602 8.95703H6.66602C6.32084 8.95703 6.04102 8.67721 6.04102 8.33203C6.04102 8.01562 6.27614 7.75412 6.58121 7.71274L6.66602 7.70703H9.16602Z" fill="#4E02E4"/>
<path d="M12.084 1.875C12.4004 1.875 12.6619 2.11013 12.7033 2.41519L12.709 2.5V5.41667C12.709 5.95601 13.1189 6.39961 13.6441 6.45296L13.7507 6.45833H16.6673C17.0125 6.45833 17.2923 6.73816 17.2923 7.08333C17.2923 7.39975 17.0572 7.66124 16.7521 7.70263L16.6673 7.70833H13.7507C12.5319 7.70833 11.5353 6.75691 11.4632 5.55627L11.459 5.41667V2.5C11.459 2.15482 11.7388 1.875 12.084 1.875Z" fill="#4E02E4"/>
</svg>
