<svg width="32" height="32" viewBox="0 0 32 32" fill="none" xmlns="http://www.w3.org/2000/svg">
<path d="M13.0532 16.5879C14.6812 14.9602 17.3203 14.9606 18.9468 16.5889C20.5726 18.215 20.5722 20.8533 18.9458 22.4814C17.3194 24.1075 14.6814 24.1076 13.0532 22.4814C11.4268 20.855 11.4268 18.2161 13.0532 16.5879ZM17.3765 17.8613C16.5259 17.1587 15.2638 17.2055 14.4673 18.002C13.6215 18.8488 13.6222 20.2213 14.4673 21.0664C15.3141 21.9122 16.6866 21.9125 17.5317 21.0674C18.3277 20.2705 18.3742 19.0079 17.6724 18.1572L17.5317 18.002L17.3765 17.8613Z" fill="#4E02E4" fill-opacity="0.5"/>
<path d="M9.33333 23C9.88562 23 10.3333 23.4477 10.3333 24C10.3333 24.5063 9.95713 24.9247 9.46903 24.9909L9.33333 25H8C7.44772 25 7 24.5523 7 24C7 23.4937 7.37621 23.0753 7.86431 23.0091L8 23H9.33333Z" fill="#4E02E4" fill-opacity="0.5"/>
<path d="M23.9998 13.668C24.5521 13.668 24.9998 14.1157 24.9998 14.668C24.9998 15.1742 24.6236 15.5926 24.1355 15.6588L23.9998 15.668H22.6665C22.1142 15.668 21.6665 15.2203 21.6665 14.668C21.6665 14.1617 22.0427 13.7433 22.5308 13.6771L22.6665 13.668H23.9998Z" fill="#4E02E4" fill-opacity="0.5"/>
<path d="M25.4668 9.66797C27.4176 9.66804 28.9999 11.2503 29 13.2012V25.2012C29 27.2268 27.3586 28.8682 25.333 28.8682H6.5332C4.58242 28.8681 3.00018 27.2857 3 25.335V13.2012C3.00007 11.2503 4.58235 9.66804 6.5332 9.66797H25.4668ZM6.5332 11.668C5.68692 11.668 5.00007 12.3549 5 13.2012V25.335C5.00018 26.1812 5.68699 26.8681 6.5332 26.8682H25.333C26.2541 26.8682 27 26.1222 27 25.2012V13.2012C26.9999 12.3549 26.3131 11.668 25.4668 11.668H6.5332Z" fill="#4E02E4" fill-opacity="0.5"/>
<path d="M25.3332 5.66797C25.8855 5.66797 26.3332 6.11568 26.3332 6.66797C26.3332 7.17423 25.957 7.59262 25.4689 7.65884L25.3332 7.66797H6.6665C6.11422 7.66797 5.6665 7.22025 5.6665 6.66797C5.6665 6.16171 6.04271 5.74331 6.53081 5.6771L6.6665 5.66797H25.3332Z" fill="#4E02E4" fill-opacity="0.5"/>
<path d="M24 1.66797C24.5523 1.66797 25 2.11568 25 2.66797C25 3.17423 24.6238 3.59262 24.1357 3.65884L24 3.66797H8C7.44772 3.66797 7 3.22025 7 2.66797C7 2.16171 7.37621 1.74331 7.86431 1.6771L8 1.66797H24Z" fill="#4E02E4" fill-opacity="0.5"/>
</svg>
