<?xml version="1.0" encoding="UTF-8"?>
<svg id="Layer_2" data-name="Layer 2" xmlns="http://www.w3.org/2000/svg" xmlns:xlink="http://www.w3.org/1999/xlink" viewBox="0 0 333.73 372.17">
  <defs>
    <style>
      .cls-1 {
        fill: url(#radial-gradient);
      }
    </style>
    <radialGradient id="radial-gradient" cx="166.86" cy="186.08" fx="306.88" fy="234.6" r="208.81" gradientTransform="translate(0 2.59) scale(1 .99)" gradientUnits="userSpaceOnUse">
      <stop offset=".34" stop-color="#c994f7"/>
      <stop offset="1" stop-color="#4e02e4"/>
    </radialGradient>
  </defs>
  <g id="Layer_1-2" data-name="Layer 1">
    <path class="cls-1" d="M156.28,259.68l19.42,15.74-70.62,87.14-19.42-15.74,70.62-87.14ZM286.24,6.86L250.89,0l-23.69,122.13,35.34,6.86,23.69-122.13ZM175.89,367.26l22.27,4.91,19.53-88.65-22.27-4.91-19.53,88.65ZM206.95,123.64L170.08,2.68l-32.33,9.86,36.88,120.96,32.33-9.86ZM228.29,281.16l25.54,81.13,19.65-6.19-25.54-81.13-19.65,6.19ZM159.36,142.49L66.43,57.9l-19.79,21.74,92.93,84.59,19.79-21.74ZM258.11,265.99l48.08,45.07,12.58-13.42-48.08-45.07-12.58,13.42ZM278.14,224.32l-3.42,15.83,55.59,12.02,3.42-15.83-55.59-12.02ZM132.75,181L5.62,156.23l-5.62,28.86,127.12,24.77,5.62-28.86ZM132.54,224.81l-112.69,43.57,9.81,25.37,112.69-43.57-9.81-25.37ZM278.58,207.35l46.58-15.03-4.3-13.32-46.58,15.03,4.3,13.32ZM260.96,170.19l9.9,9.9,19.53-19.53-9.9-9.9-19.53,19.53Z"/>
  </g>
</svg>