<svg width="24" height="24" viewBox="0 0 24 24" fill="none" xmlns="http://www.w3.org/2000/svg">
<path d="M11.3685 8.03387L7.71772 10.7827C6.63202 11.6002 6 12.8378 6 14.1464V19.9231C6 21.6224 7.46368 23 9.26923 23H19.7308C21.5363 23 23 21.6224 23 19.9231V14.1464C23 12.8378 22.368 11.6002 21.2823 10.7827L17.6315 8.03387C15.8007 6.65538 13.1993 6.65538 11.3685 8.03387Z" fill="#4E02E4" fill-opacity="0.2"/>
<path d="M12.25 12.25C14.183 12.25 15.75 13.817 15.75 15.75V21C15.75 21.4142 15.4142 21.75 15 21.75H9C8.58579 21.75 8.25 21.4142 8.25 21V15.75C8.25 13.817 9.817 12.25 11.75 12.25H12.25ZM11.75 13.75C10.6454 13.75 9.75 14.6454 9.75 15.75V20.25H14.25V15.75C14.25 14.6957 13.4342 13.8323 12.3994 13.7559L12.25 13.75H11.75Z" fill="#4E02E4"/>
<path d="M8.4082 3.50977C10.5081 1.83001 13.4919 1.83001 15.5918 3.50977L19.7793 6.86035C21.0247 7.85666 21.75 9.3651 21.75 10.96V18C21.75 20.0711 20.0711 21.75 18 21.75H6C3.92893 21.75 2.25 20.0711 2.25 18V10.96C2.25 9.3651 2.97534 7.85666 4.2207 6.86035L8.4082 3.50977ZM14.6553 4.68164C13.1031 3.43987 10.8969 3.43987 9.34473 4.68164L5.15723 8.03125C4.26768 8.7429 3.75 9.82078 3.75 10.96V18C3.75 19.2426 4.75736 20.25 6 20.25H18C19.2426 20.25 20.25 19.2426 20.25 18V10.96C20.25 9.82078 19.7323 8.74289 18.8428 8.03125L14.6553 4.68164Z" fill="#4E02E4"/>
</svg>
