<svg width="24" height="24" viewBox="0 0 24 24" fill="none" xmlns="http://www.w3.org/2000/svg">
<path d="M17.8184 6.25C19.9897 6.25019 21.7498 8.01034 21.75 10.1816V18C21.75 20.0711 20.0711 21.75 18 21.75H6C4.01098 21.75 2.37154 20.1972 2.25586 18.1982L2.25 18V10.1816C2.25019 8.01034 4.01034 6.25019 6.18164 6.25H17.8184ZM6.18164 7.75C4.83877 7.75019 3.75019 8.83877 3.75 10.1816V17.9785L3.75391 18.1328C3.82258 19.318 4.80671 20.25 6 20.25H18C19.2426 20.25 20.25 19.2426 20.25 18V10.1816C20.2498 8.83877 19.1612 7.75019 17.8184 7.75H6.18164Z" fill="#323232"/>
<path d="M20.6456 10.3393C21.0106 10.1434 21.4652 10.2806 21.661 10.6456C21.8569 11.0106 21.7197 11.4652 21.3547 11.661C16.1627 14.4465 7.83763 14.4465 2.64558 11.661C2.28058 11.4652 2.14343 11.0106 2.33925 10.6456C2.53507 10.2806 2.98971 10.1434 3.35471 10.3392C8.10386 12.8871 15.8965 12.8871 20.6456 10.3393Z" fill="#323232"/>
<path d="M14 2.25C15.4625 2.25 16.6584 3.3917 16.745 4.83248L16.75 5V9C16.75 9.41421 16.4142 9.75 16 9.75C15.6203 9.75 15.3065 9.46785 15.2568 9.10177L15.25 9V5C15.25 4.35279 14.7581 3.82047 14.1278 3.75645L14 3.75H10C9.35279 3.75 8.82047 4.24187 8.75645 4.87219L8.75 5V9C8.75 9.41421 8.41421 9.75 8 9.75C7.6203 9.75 7.30651 9.46785 7.25685 9.10177L7.25 9V5C7.25 3.53747 8.3917 2.3416 9.83248 2.25502L10 2.25H14Z" fill="#323232"/>
<path d="M13.5 16.25C13.9142 16.25 14.25 16.5858 14.25 17C14.25 17.3797 13.9678 17.6935 13.6018 17.7432L13.5 17.75H10.5C10.0858 17.75 9.75 17.4142 9.75 17C9.75 16.6203 10.0322 16.3065 10.3982 16.2568L10.5 16.25H13.5Z" fill="#323232"/>
</svg>
