<svg width="29" height="29" viewBox="0 0 29 29" fill="none" xmlns="http://www.w3.org/2000/svg">
<g clip-path="url(#clip0_6872_4098)">
<path d="M10.8465 9.993V12.1332H17.9807V9.993C17.9807 8.02219 16.3844 6.42592 14.4136 6.42592C12.4428 6.42592 10.8465 8.02219 10.8465 9.993ZM7.99285 12.1332V9.993C7.99285 6.44822 10.8688 3.57227 14.4136 3.57227C17.9584 3.57227 20.8343 6.44822 20.8343 9.993V12.1332H21.5477C23.1217 12.1332 24.4014 13.4129 24.4014 14.9869V23.5479C24.4014 25.1218 23.1217 26.4015 21.5477 26.4015H7.27944C5.70547 26.4015 4.42578 25.1218 4.42578 23.5479V14.9869C4.42578 13.4129 5.70547 12.1332 7.27944 12.1332H7.99285Z" fill="#C7C7C7"/>
</g>
<defs>
<clipPath id="clip0_6872_4098">
<rect width="19.98" height="22.8293" fill="white" transform="translate(4.42383 3.57227)"/>
</clipPath>
</defs>
</svg>
