<svg width="24" height="24" viewBox="0 0 24 24" fill="none" xmlns="http://www.w3.org/2000/svg">
<path d="M18.6571 16C20.9809 16 22.8912 17.8842 22.9955 20.2311L23 20.4333V21.3667C23 22.2216 22.3516 22.9262 21.5309 22.9946L21.4 23H8.6C7.76251 23 7.07225 22.3381 7.00532 21.5003L7 21.3667V20.4333C7 18.0612 8.84574 16.1111 11.1447 16.0046L11.3429 16H18.6571Z" fill="#4E02E4" fill-opacity="0.2"/>
<path d="M15 5C17.7532 5 20 7.23915 20 9.98381C20 12.733 17.7488 15 15 15C12.2468 15 10 12.7609 10 10.0162C10 7.26704 12.2512 5 15 5Z" fill="#4E02E4" fill-opacity="0.2"/>
<path d="M16 14.25C18.5416 14.25 20.631 16.2687 20.7451 18.7832L20.75 19V20C20.75 20.9159 20.041 21.6708 19.1436 21.7441L19 21.75H5C4.08411 21.75 3.32923 21.041 3.25586 20.1436L3.25 20V19C3.25 16.4584 5.26873 14.369 7.7832 14.2549L8 14.25H16ZM8 15.75C6.2758 15.75 4.85109 17.1149 4.75488 18.8164L4.75 19V20C4.75 20.1164 4.8339 20.2168 4.94336 20.2432L5 20.25H19C19.1164 20.25 19.2168 20.1661 19.2432 20.0566L19.25 20V19C19.25 17.2758 17.8851 15.8511 16.1836 15.7549L16 15.75H8ZM12 2.25C14.8815 2.25 17.2334 4.6015 17.2334 7.4834C17.2332 10.3698 14.8768 12.75 12 12.75C9.11847 12.75 6.7666 10.3985 6.7666 7.5166C6.76682 4.63017 9.12323 2.25 12 2.25ZM12 3.75C9.95512 3.75 8.26682 5.45517 8.2666 7.5166C8.2666 9.57002 9.94684 11.25 12 11.25C14.0449 11.25 15.7332 9.54483 15.7334 7.4834C15.7334 5.42998 14.0532 3.75 12 3.75Z" fill="#4E02E4"/>
</svg>
