<svg width="25" height="24" viewBox="0 0 25 24" fill="none" xmlns="http://www.w3.org/2000/svg">
<path d="M23.193 7H7.80701C6.80902 7 6 7.68716 6 8.53481V17.4652C6 18.3128 6.80902 19 7.80701 19H23.193C24.191 19 25 18.3128 25 17.4652V8.53481C25 7.68716 24.191 7 23.193 7Z" fill="#4E02E4" fill-opacity="0.2"/>
<path d="M4.47363 4H21.2764C21.9966 4 22.5 4.5377 22.5 5.10449V15.8955C22.5 16.4623 21.9966 17 21.2764 17H4.47363C3.75339 17 3.25004 16.4623 3.25 15.8955V5.10449C3.25004 4.5377 3.75339 4 4.47363 4Z" stroke="#4E02E4" stroke-width="1.5"/>
<path d="M17 19.25C17.4142 19.25 17.75 19.5858 17.75 20C17.75 20.3797 17.4678 20.6935 17.1018 20.7432L17 20.75H8C7.58579 20.75 7.25 20.4142 7.25 20C7.25 19.6203 7.53215 19.3065 7.89823 19.2568L8 19.25H17Z" fill="#4E02E4"/>
<path d="M10.8057 6.80469C11.8796 5.73126 13.6205 5.73115 14.6943 6.80469C15.7683 7.87863 15.7683 9.62039 14.6943 10.6943C13.6205 11.7681 11.8796 11.768 10.8057 10.6943C9.73172 9.62039 9.73172 7.87863 10.8057 6.80469ZM13.5322 7.77441C13.0414 7.37969 12.3218 7.41065 11.8662 7.86621C11.3781 8.35437 11.3781 9.14565 11.8662 9.63379C12.3544 10.1217 13.1457 10.1218 13.6338 9.63379C14.0894 9.17822 14.1194 8.45861 13.7246 7.96777L13.6338 7.86621L13.5322 7.77441Z" fill="#4E02E4"/>
<path d="M13.3792 12.5C14.3467 12.5 15.2789 12.866 15.9888 13.5237C16.4084 13.9123 16.7355 14.3894 16.947 14.9206C17.1002 15.3054 16.9125 15.7416 16.5276 15.8948C16.1428 16.048 15.7066 15.8603 15.5534 15.4754C15.4245 15.1516 15.2252 14.861 14.9695 14.6242C14.5847 14.2676 14.093 14.0518 13.5747 14.0082L13.3792 14H12.1212C11.5311 14 10.9635 14.2227 10.5299 14.6251C10.275 14.8604 10.076 15.1505 9.94723 15.4749C9.79433 15.8598 9.3583 16.0479 8.97334 15.895C8.58838 15.7421 8.40027 15.3061 8.55317 14.9211C8.76476 14.3884 9.09226 13.9108 9.51097 13.5243C10.166 12.9163 11.0106 12.558 11.8984 12.5065L12.1212 12.5H13.3792Z" fill="#4E02E4"/>
</svg>
