<svg width="25" height="24" viewBox="0 0 25 24" fill="none" xmlns="http://www.w3.org/2000/svg">
<path d="M21.2764 3.25C22.3662 3.25 23.25 4.08028 23.25 5.10449V15.8955L23.2402 16.085C23.1392 17.0202 22.2982 17.75 21.2764 17.75H4.47363L4.27148 17.7402C3.34275 17.6515 2.60402 16.9578 2.50977 16.085L2.5 15.8955V5.10449C2.50004 4.14436 3.27648 3.35482 4.27148 3.25977L4.47363 3.25H21.2764ZM4.47363 4.75C4.31289 4.75 4.18625 4.8108 4.10547 4.88672C4.0264 4.96107 4.00002 5.03788 4 5.10449V15.8955C4.00002 15.9621 4.0264 16.0389 4.10547 16.1133C4.18625 16.1892 4.31289 16.25 4.47363 16.25H21.2764C21.4371 16.25 21.5637 16.1892 21.6445 16.1133C21.7236 16.0389 21.75 15.9621 21.75 15.8955V5.10449C21.75 5.03788 21.7236 4.96107 21.6445 4.88672C21.5637 4.8108 21.4371 4.75 21.2764 4.75H4.47363Z" fill="black"/>
<path d="M17 19.25C17.4142 19.25 17.75 19.5858 17.75 20C17.75 20.3797 17.4678 20.6935 17.1018 20.7432L17 20.75H8C7.58579 20.75 7.25 20.4142 7.25 20C7.25 19.6203 7.53215 19.3065 7.89823 19.2568L8 19.25H17Z" fill="black"/>
<path d="M10.8057 6.80566C11.8796 5.73172 13.6204 5.73173 14.6943 6.80566C15.7683 7.87961 15.7683 9.62039 14.6943 10.6943C13.6204 11.7682 11.8796 11.7682 10.8057 10.6943C9.73176 9.62042 9.73181 7.87961 10.8057 6.80566ZM13.5322 7.77539C13.0414 7.38053 12.3218 7.4106 11.8662 7.86621C11.3781 8.35436 11.3781 9.14565 11.8662 9.63379C12.3543 10.1219 13.1456 10.1219 13.6338 9.63379C14.0894 9.17818 14.1195 8.45861 13.7246 7.96777L13.6338 7.86621L13.5322 7.77539Z" fill="black"/>
<path d="M13.3792 12.5C14.3467 12.5 15.2789 12.866 15.9888 13.5237C16.4084 13.9123 16.7355 14.3894 16.947 14.9206C17.1002 15.3054 16.9125 15.7416 16.5276 15.8948C16.1428 16.048 15.7066 15.8603 15.5534 15.4754C15.4245 15.1516 15.2252 14.861 14.9695 14.6242C14.5847 14.2676 14.093 14.0518 13.5747 14.0082L13.3792 14H12.1212C11.5311 14 10.9635 14.2227 10.5299 14.6251C10.275 14.8604 10.076 15.1505 9.94723 15.4749C9.79433 15.8598 9.3583 16.0479 8.97334 15.895C8.58838 15.7421 8.40027 15.3061 8.55317 14.9211C8.76476 14.3884 9.09226 13.9108 9.51097 13.5243C10.166 12.9163 11.0106 12.558 11.8984 12.5065L12.1212 12.5H13.3792Z" fill="black"/>
</svg>
