<svg width="29" height="29" viewBox="0 0 29 29" fill="none" xmlns="http://www.w3.org/2000/svg">
<path d="M10.8485 9.993C10.8485 8.02219 12.4447 6.42592 14.4155 6.42592C15.8379 6.42592 17.0641 7.25527 17.6393 8.46361C17.9782 9.17703 18.8298 9.48023 19.5387 9.14136C20.2477 8.80249 20.5554 7.95085 20.2165 7.24189C19.1865 5.0749 16.9794 3.57227 14.4155 3.57227C10.8708 3.57227 7.99481 6.44822 7.99481 9.993V12.1332H7.28139C5.70742 12.1332 4.42773 13.4129 4.42773 14.9869V23.5479C4.42773 25.1218 5.70742 26.4015 7.28139 26.4015H21.5497C23.1237 26.4015 24.4033 25.1218 24.4033 23.5479V14.9869C24.4033 13.4129 23.1237 12.1332 21.5497 12.1332H10.8485V9.993Z" fill="white"/>
</svg>
