<svg width="24" height="24" viewBox="0 0 24 24" fill="none" xmlns="http://www.w3.org/2000/svg">
<path d="M8 7.25C8.41421 7.25 8.75 7.58579 8.75 8C8.75 8.3797 8.46785 8.69349 8.10177 8.74315L8 8.75H4C3.58579 8.75 3.25 8.41421 3.25 8C3.25 7.6203 3.53215 7.30651 3.89823 7.25685L4 7.25H8Z" fill="black" fill-opacity="0.2"/>
<path d="M8.10635 15.2305C8.52056 15.2285 8.85798 15.5626 8.85999 15.9768C8.86184 16.3565 8.58122 16.6717 8.21539 16.7231L8.11365 16.7305L4.00365 16.7505C3.58944 16.7525 3.25202 16.4183 3.25001 16.0041C3.24816 15.6244 3.52879 15.3093 3.89461 15.2578L3.99635 15.2505L8.10635 15.2305Z" fill="black" fill-opacity="0.2"/>
<path d="M8.11 11.25C8.52421 11.25 8.86 11.5858 8.86 12C8.86 12.3797 8.57785 12.6935 8.21177 12.7432L8.11 12.75H2C1.58579 12.75 1.25 12.4142 1.25 12C1.25 11.6203 1.53215 11.3065 1.89823 11.2568L2 11.25H8.11Z" fill="black" fill-opacity="0.2"/>
<path d="M11.1084 8.25684C10.4963 6.72772 12.1419 5.2777 13.582 6.07715L22.0225 10.7656C22.9915 11.3044 22.9917 12.6983 22.0225 13.2373L13.582 17.9258C12.1422 18.7253 10.4969 17.2754 11.1074 15.7461L12.4199 12.4648C12.5392 12.167 12.5388 11.8347 12.4199 11.5391L11.1084 8.25684ZM12.8545 7.38867C12.6485 7.27429 12.4133 7.48122 12.501 7.7002L13.8125 10.9814C14.0749 11.6343 14.0749 12.3659 13.8125 13.0215L12.501 16.3027C12.4135 16.5218 12.648 16.7288 12.8535 16.6152L21.1572 12.002L12.8545 7.38867Z" fill="black" fill-opacity="0.2"/>
</svg>
