<?xml version="1.0" standalone="no"?><!DOCTYPE svg PUBLIC "-//W3C//DTD SVG 1.1//EN" "http://www.w3.org/Graphics/SVG/1.1/DTD/svg11.dtd"><svg t="1757560488155" class="icon" viewBox="0 0 1024 1024" version="1.1" xmlns="http://www.w3.org/2000/svg" p-id="33068" xmlns:xlink="http://www.w3.org/1999/xlink" width="200" height="200"><path d="M389.636 168.98c9.5224-22.5416 41.4664-22.5416 50.9888 0l93.42 221.1456a27.6736 27.6736 0 0 0 14.7248 14.724L769.9128 498.272c22.5408 9.5224 22.5408 41.4656 0 50.988L548.7696 642.6824a27.6736 27.6736 0 0 0-14.7248 14.724L440.6248 878.552c-9.5224 22.544-41.4664 22.544-50.9888 0L296.216 657.4064a27.6752 27.6752 0 0 0-14.724-14.724L60.348 549.26c-22.5408-9.5224-22.5408-41.4656 0-50.988l221.144-93.4224a27.6752 27.6752 0 0 0 14.724-14.724l93.42-221.1456z" fill="#514EFF" p-id="33069"></path><path d="M765.3544 684.78c3.5712-8.4536 15.5496-8.4536 19.1208 0l38.1168 90.2256a10.368 10.368 0 0 0 5.52 5.5216l90.224 38.1128c8.456 3.576 8.456 15.552 0 19.12l-90.224 38.12a10.3568 10.3568 0 0 0-5.52 5.52l-38.1168 90.224c-3.5712 8.456-15.5496 8.456-19.1208 0l-38.1152-90.224a10.3648 10.3648 0 0 0-5.5216-5.52l-90.2248-38.12c-8.4528-3.568-8.4528-15.544 0-19.12l90.2248-38.1128a10.376 10.376 0 0 0 5.5216-5.5216l38.1152-90.2256z" fill="#8B89FD" p-id="33070"></path><path d="M819.12 52.0032c4.168-9.8616 18.144-9.8616 22.312 0l44.464 105.2632a12.1392 12.1392 0 0 0 6.448 6.4424L997.6 208.1768c9.864 4.1656 9.864 18.1408 0 22.3072l-105.256 44.468a12.1392 12.1392 0 0 0-6.448 6.4424l-44.464 105.2632c-4.168 9.8616-18.144 9.8616-22.312 0l-44.4632-105.2632a12.1128 12.1128 0 0 0-6.4424-6.4424L662.952 230.484c-9.8616-4.1664-9.8616-18.1416 0-22.3072l105.2624-44.468a12.1128 12.1128 0 0 0 6.4424-6.4424l44.4632-105.264z" fill="#8471FF" p-id="33071"></path></svg>