<svg width="22" height="20" viewBox="0 0 22 20" fill="none" xmlns="http://www.w3.org/2000/svg">
<path d="M21 18.25C21.4142 18.25 21.75 18.5858 21.75 19C21.75 19.4142 21.4142 19.75 21 19.75H1C0.585786 19.75 0.25 19.4142 0.25 19C0.25 18.5858 0.585786 18.25 1 18.25H21Z" fill="#4E02E4"/>
<path d="M19 0.25C19.9665 0.25 20.75 1.0335 20.75 2V19C20.75 19.4142 20.4142 19.75 20 19.75C19.5858 19.75 19.25 19.4142 19.25 19V2C19.25 1.86193 19.1381 1.75 19 1.75H9C8.86193 1.75 8.75 1.86193 8.75 2V19C8.75 19.4142 8.41421 19.75 8 19.75C7.58579 19.75 7.25 19.4142 7.25 19V2C7.25 1.0335 8.0335 0.25 9 0.25H19Z" fill="#4E02E4"/>
<path d="M17 4.25C17.4142 4.25 17.75 4.58579 17.75 5C17.75 5.41421 17.4142 5.75 17 5.75H11C10.5858 5.75 10.25 5.41421 10.25 5C10.25 4.58579 10.5858 4.25 11 4.25H17Z" fill="#4E02E4"/>
<path d="M17 7.25C17.4142 7.25 17.75 7.58579 17.75 8C17.75 8.41421 17.4142 8.75 17 8.75H11C10.5858 8.75 10.25 8.41421 10.25 8C10.25 7.58579 10.5858 7.25 11 7.25H17Z" fill="#4E02E4"/>
<path d="M17 10.25C17.4142 10.25 17.75 10.5858 17.75 11C17.75 11.4142 17.4142 11.75 17 11.75H11C10.5858 11.75 10.25 11.4142 10.25 11C10.25 10.5858 10.5858 10.25 11 10.25H17Z" fill="#4E02E4"/>
<path d="M8 4.25C8.41421 4.25 8.75 4.58579 8.75 5C8.75 5.41421 8.41421 5.75 8 5.75H3C2.86193 5.75 2.75 5.86193 2.75 6V19C2.75 19.4142 2.41421 19.75 2 19.75C1.58579 19.75 1.25 19.4142 1.25 19V6C1.25 5.0335 2.0335 4.25 3 4.25H8Z" fill="#4E02E4"/>
<path d="M16 14.25C16.4142 14.25 16.75 14.5858 16.75 15V19C16.75 19.4142 16.4142 19.75 16 19.75C15.5858 19.75 15.25 19.4142 15.25 19V15C15.25 14.5858 15.5858 14.25 16 14.25Z" fill="#4E02E4"/>
<path d="M12 14.25C12.4142 14.25 12.75 14.5858 12.75 15V19C12.75 19.4142 12.4142 19.75 12 19.75C11.5858 19.75 11.25 19.4142 11.25 19V15C11.25 14.5858 11.5858 14.25 12 14.25Z" fill="#4E02E4"/>
<path d="M17 14.25C17.4142 14.25 17.75 14.5858 17.75 15C17.75 15.4142 17.4142 15.75 17 15.75H11C10.5858 15.75 10.25 15.4142 10.25 15C10.25 14.5858 10.5858 14.25 11 14.25H17Z" fill="#4E02E4"/>
</svg>
