<svg width="22" height="20" viewBox="0 0 22 20" fill="none" xmlns="http://www.w3.org/2000/svg">
<path d="M14 0.25C14.9665 0.25 15.75 1.0335 15.75 2V19C15.75 19.4142 15.4142 19.75 15 19.75C14.5858 19.75 14.25 19.4142 14.25 19V2C14.25 1.86193 14.1381 1.75 14 1.75H6.5C6.36193 1.75 6.25 1.86193 6.25 2V6.29779C6.25 6.712 5.91421 7.04779 5.5 7.04779C5.08579 7.04779 4.75 6.712 4.75 6.29779V2C4.75 1.0335 5.5335 0.25 6.5 0.25H14Z" fill="#4E02E4"/>
<path d="M19.1 9.25C20.0113 9.25 20.75 9.98873 20.75 10.9V19C20.75 19.4142 20.4142 19.75 20 19.75C19.5858 19.75 19.25 19.4142 19.25 19V10.9C19.25 10.8172 19.1828 10.75 19.1 10.75H15C14.5858 10.75 14.25 10.4142 14.25 10C14.25 9.58579 14.5858 9.25 15 9.25H19.1Z" fill="#4E02E4"/>
<path d="M7.43991 4.48949C8.13588 4.14151 8.96223 4.17782 9.62499 4.5855C10.2877 4.99318 10.6928 5.71435 10.6961 6.49238L10.7502 18.9968C10.752 19.411 10.4177 19.7483 10.0035 19.75C9.58928 19.7518 9.25204 19.4175 9.25025 19.0033L9.19613 6.49879C9.19503 6.23942 9.06001 5.99903 8.83909 5.86314C8.61817 5.72724 8.34271 5.71514 8.11072 5.83114L3.44101 8.16588C3.01751 8.37761 2.75 8.81045 2.75 9.28392V19.0001C2.75 19.4143 2.41421 19.7501 2 19.7501C1.58579 19.7501 1.25 19.4143 1.25 19.0001V9.28392C1.25 8.24228 1.83853 7.29004 2.77021 6.82422L7.43991 4.48949Z" fill="#4E02E4"/>
<path d="M21 18.25C21.4142 18.25 21.75 18.5858 21.75 19C21.75 19.4142 21.4142 19.75 21 19.75H1C0.585786 19.75 0.25 19.4142 0.25 19C0.25 18.5858 0.585786 18.25 1 18.25H21Z" fill="#4E02E4"/>
<path d="M7 11.25C7.41421 11.25 7.75 11.5858 7.75 12C7.75 12.4142 7.41421 12.75 7 12.75H5C4.58579 12.75 4.25 12.4142 4.25 12C4.25 11.5858 4.58579 11.25 5 11.25H7Z" fill="#4E02E4"/>
<path d="M7 14.25C7.41421 14.25 7.75 14.5858 7.75 15C7.75 15.4142 7.41421 15.75 7 15.75H5C4.58579 15.75 4.25 15.4142 4.25 15C4.25 14.5858 4.58579 14.25 5 14.25H7Z" fill="#4E02E4"/>
</svg>
