<svg width="30" height="30" viewBox="0 0 30 30" fill="none" xmlns="http://www.w3.org/2000/svg">
<path d="M16.0436 1.93164C14.0227 1.93165 12.5254 2.18788 11.2922 2.70401C10.0446 3.22592 9.16974 3.9712 8.37112 4.73881L8.36912 4.74081L8.18802 4.91326L8.13542 4.96453L8.12743 4.97252C7.63461 5.4371 6.96741 6.07866 6.62197 7.03462L6.46749 7.45344C5.66155 9.60101 4.35333 12.523 3.46256 14.46C2.73895 16.0338 3.48865 17.8131 4.85017 18.4191L5.255 18.5989V21.1104C5.25545 21.886 5.5477 22.6232 6.058 23.1612C6.56729 23.6982 7.25045 23.9925 7.95431 23.9929H10.5058V28.0678H12.0419V22.2996H7.95298C7.63354 22.2986 7.33507 22.164 7.12068 21.9381C6.90747 21.7133 6.79337 21.4157 6.79242 21.1124V16.945H5.88954C5.68386 16.9428 5.48384 16.8858 5.30893 16.7818C5.13429 16.678 4.9916 16.5315 4.89079 16.3597C4.79009 16.1881 4.73315 15.9951 4.72366 15.7984C4.71419 15.6016 4.75243 15.4039 4.83552 15.2238C5.72383 13.2904 7.05668 10.3139 7.89039 8.09331L8.05019 7.65985C8.25013 7.10593 8.65309 6.70785 9.18944 6.19833L9.33059 6.0645L9.38386 6.01323C10.0792 5.34229 10.7489 4.78052 11.6517 4.36861L11.8355 4.28804C12.8373 3.86897 14.1351 3.62356 16.0449 3.62354C19.7583 3.62354 22.0671 4.91244 23.4437 6.50728C24.8212 8.10246 25.2821 10.025 25.2821 11.3259C25.2821 14.8463 23.3826 17.6339 22.2565 18.9172L22.2545 18.9192L22.0374 19.1642V28.0678H23.5735V19.846L23.724 19.6589C24.9962 18.0779 26.8182 15.0995 26.8182 11.3273C26.8181 9.64449 26.2357 7.28856 24.5543 5.34073C22.8361 3.35018 20.0976 1.93164 16.0436 1.93164Z" fill="#4E02E4"/>
<path d="M21.4965 11.9964C21.3964 11.8844 21.3412 11.7405 21.3412 11.5914C21.3412 11.4424 21.3964 11.2985 21.4965 11.1865L22.296 10.303C22.3841 10.2064 22.4388 10.085 22.4523 9.95602C22.4658 9.82705 22.4373 9.69721 22.371 9.58512L21.1218 7.46223C21.0561 7.35027 20.9562 7.26152 20.8362 7.20864C20.7162 7.15576 20.5822 7.14144 20.4535 7.16773L19.2792 7.40088C19.1298 7.4312 18.9742 7.40676 18.8419 7.33216C18.7096 7.25756 18.6096 7.13796 18.5609 6.99593L18.1799 5.87313C18.138 5.75126 18.0582 5.64542 17.9517 5.57055C17.8452 5.49568 17.7175 5.45558 17.5865 5.45591H15.0881C14.9519 5.44893 14.8171 5.48593 14.7043 5.56127C14.5916 5.6366 14.507 5.74613 14.4635 5.87313L14.1137 6.99593C14.065 7.13796 13.9651 7.25756 13.8327 7.33216C13.7004 7.40676 13.5449 7.4312 13.3955 7.40088L12.19 7.16773C12.0679 7.15078 11.9434 7.1697 11.8323 7.22211C11.7211 7.27452 11.6283 7.35807 11.5654 7.46223L10.3162 9.58512C10.2482 9.69596 10.2176 9.82508 10.2288 9.95401C10.2401 10.0829 10.2925 10.2051 10.3786 10.303L11.1719 11.1865C11.272 11.2985 11.3272 11.4424 11.3272 11.5914C11.3272 11.7405 11.272 11.8844 11.1719 11.9964L10.3786 12.8799C10.2925 12.9778 10.2401 13.0999 10.2288 13.2289C10.2176 13.3578 10.2482 13.4869 10.3162 13.5978L11.5654 15.7207C11.631 15.8326 11.731 15.9214 11.851 15.9742C11.971 16.0271 12.1049 16.0414 12.2337 16.0152L13.4079 15.782C13.5574 15.7517 13.7129 15.7761 13.8452 15.8507C13.9776 15.9253 14.0775 16.0449 14.1262 16.187L14.5072 17.3098C14.5507 17.4367 14.6353 17.5463 14.7481 17.6216C14.8609 17.697 14.9956 17.734 15.1318 17.727H17.6303C17.7612 17.7273 17.8889 17.6872 17.9954 17.6123C18.1019 17.5375 18.1817 17.4316 18.2236 17.3098L18.6046 16.187C18.6534 16.0449 18.7533 15.9253 18.8856 15.8507C19.018 15.7761 19.1735 15.7517 19.3229 15.782L20.4972 16.0152C20.626 16.0414 20.7599 16.0271 20.8799 15.9742C20.9999 15.9214 21.0999 15.8326 21.1655 15.7207L22.4147 13.5978C22.481 13.4857 22.5095 13.3558 22.496 13.2269C22.4826 13.0979 22.4279 12.9764 22.3398 12.8799L21.4965 11.9964ZM20.5659 12.8185L21.0656 13.3707L20.2661 14.7328L19.529 14.5856C19.0792 14.4953 18.6112 14.5703 18.214 14.7965C17.8168 15.0227 17.5179 15.3843 17.3742 15.8127L17.1368 16.4999H15.5378L15.313 15.8004C15.1692 15.3721 14.8704 15.0105 14.4731 14.7843C14.0759 14.558 13.608 14.483 13.1581 14.5733L12.4211 14.7206L11.6091 13.3646L12.1088 12.8124C12.416 12.4749 12.5859 12.0381 12.5859 11.5853C12.5859 11.1325 12.416 10.6957 12.1088 10.3582L11.6091 9.806L12.4086 8.45619L13.1456 8.60344C13.5955 8.69377 14.0634 8.6187 14.4607 8.3925C14.8579 8.16629 15.1567 7.80469 15.3005 7.37633L15.5378 6.68302H17.1368L17.3742 7.38247C17.5179 7.81083 17.8168 8.17243 18.214 8.39863C18.6112 8.62484 19.0792 8.6999 19.529 8.60957L20.2661 8.46232L21.0656 9.82441L20.5659 10.3766C20.2621 10.7133 20.0943 11.1476 20.0943 11.5976C20.0943 12.0475 20.2621 12.4819 20.5659 12.8185ZM16.3373 9.13723C15.8432 9.13723 15.3601 9.28117 14.9493 9.55084C14.5384 9.82051 14.2182 10.2038 14.0291 10.6523C13.84 11.1007 13.7905 11.5942 13.8869 12.0702C13.9833 12.5463 14.2213 12.9836 14.5707 13.3268C14.9201 13.6701 15.3653 13.9038 15.8499 13.9985C16.3346 14.0932 16.8369 14.0446 17.2934 13.8588C17.75 13.6731 18.1402 13.3585 18.4147 12.9549C18.6892 12.5513 18.8357 12.0768 18.8357 11.5914C18.8357 10.9405 18.5725 10.3163 18.104 9.85605C17.6354 9.3958 16.9999 9.13723 16.3373 9.13723ZM16.3373 12.8185C16.0903 12.8185 15.8487 12.7466 15.6433 12.6117C15.4379 12.4769 15.2778 12.2853 15.1832 12.061C15.0887 11.8368 15.0639 11.5901 15.1121 11.352C15.1603 11.114 15.2793 10.8954 15.454 10.7237C15.6287 10.5521 15.8513 10.4353 16.0936 10.3879C16.3359 10.3406 16.5871 10.3649 16.8154 10.4577C17.0436 10.5506 17.2387 10.7079 17.376 10.9097C17.5133 11.1115 17.5865 11.3487 17.5865 11.5914C17.5865 11.9169 17.4549 12.229 17.2206 12.4591C16.9864 12.6893 16.6686 12.8185 16.3373 12.8185Z" fill="#4E02E4"/>
</svg>
