<svg width="24" height="24" viewBox="0 0 24 24" fill="none" xmlns="http://www.w3.org/2000/svg">
<path fill-rule="evenodd" clip-rule="evenodd" d="M4 2.25H20C20.9665 2.25 21.75 3.0335 21.75 4V5C21.75 5.9665 20.9665 6.75 20 6.75H4C3.0335 6.75 2.25 5.9665 2.25 5V4C2.25 3.0335 3.0335 2.25 4 2.25ZM20 3.75H4C3.86193 3.75 3.75 3.86193 3.75 4V5C3.75 5.13807 3.86193 5.25 4 5.25H20C20.1381 5.25 20.25 5.13807 20.25 5V4C20.25 3.86193 20.1381 3.75 20 3.75Z" fill="#323232"/>
<path fill-rule="evenodd" clip-rule="evenodd" d="M4 5.25H20C20.4142 5.25 20.75 5.58579 20.75 6V17C20.75 17.4142 20.4142 17.75 20 17.75H4C3.58579 17.75 3.25 17.4142 3.25 17V6C3.25 5.58579 3.58579 5.25 4 5.25ZM19.25 16.25V6.75H4.75V16.25H19.25Z" fill="#323232"/>
<path d="M21 16.25C21.4142 16.25 21.75 16.5858 21.75 17C21.75 17.3797 21.4678 17.6935 21.1018 17.7432L21 17.75H3C2.58579 17.75 2.25 17.4142 2.25 17C2.25 16.6203 2.53215 16.3065 2.89823 16.2568L3 16.25H21Z" fill="#323232"/>
<path d="M12 16.25C12.3797 16.25 12.6935 16.5322 12.7432 16.8982L12.75 17V19C12.75 19.4142 12.4142 19.75 12 19.75C11.6203 19.75 11.3065 19.4678 11.2568 19.1018L11.25 19V17C11.25 16.5858 11.5858 16.25 12 16.25Z" fill="#323232"/>
<path fill-rule="evenodd" clip-rule="evenodd" d="M9.75 20.5C9.75 19.2574 10.7574 18.25 12 18.25C13.2426 18.25 14.25 19.2574 14.25 20.5C14.25 21.7426 13.2426 22.75 12 22.75C10.7574 22.75 9.75 21.7426 9.75 20.5ZM12.75 20.5C12.75 20.0858 12.4142 19.75 12 19.75C11.5858 19.75 11.25 20.0858 11.25 20.5C11.25 20.9142 11.5858 21.25 12 21.25C12.4142 21.25 12.75 20.9142 12.75 20.5Z" fill="#323232"/>
<path d="M16.5 13.25C16.9142 13.25 17.25 13.5858 17.25 14C17.25 14.3797 16.9678 14.6935 16.6018 14.7432L16.5 14.75H7.5C7.08579 14.75 6.75 14.4142 6.75 14C6.75 13.6203 7.03215 13.3065 7.39823 13.2568L7.5 13.25H16.5Z" fill="#323232"/>
<path d="M12 8.25C12.3797 8.25 12.6935 8.53215 12.7432 8.89823L12.75 9V14C12.75 14.4142 12.4142 14.75 12 14.75C11.6203 14.75 11.3065 14.4678 11.2568 14.1018L11.25 14V9C11.25 8.58579 11.5858 8.25 12 8.25Z" fill="#323232"/>
<path d="M15 9.25C15.3797 9.25 15.6935 9.53215 15.7432 9.89823L15.75 10V14C15.75 14.4142 15.4142 14.75 15 14.75C14.6203 14.75 14.3065 14.4678 14.2568 14.1018L14.25 14V10C14.25 9.58579 14.5858 9.25 15 9.25Z" fill="#323232"/>
<path d="M9 10.25C9.3797 10.25 9.69349 10.5322 9.74315 10.8982L9.75 11V14C9.75 14.4142 9.41421 14.75 9 14.75C8.6203 14.75 8.30651 14.4678 8.25685 14.1018L8.25 14V11C8.25 10.5858 8.58579 10.25 9 10.25Z" fill="#323232"/>
</svg>
