<svg width="30" height="30" viewBox="0 0 30 30" fill="none" xmlns="http://www.w3.org/2000/svg">
<path d="M22.2927 5.132C22.6589 4.76589 23.2525 4.7659 23.6186 5.13201C23.9514 5.46485 23.9817 5.98568 23.7093 6.35269L23.6186 6.45784L22.8231 7.25333C22.4569 7.61944 21.8634 7.61944 21.4972 7.25332C21.1644 6.92048 21.1342 6.39965 21.4065 6.03264L21.4972 5.92749L22.2927 5.132Z" fill="#4E02E4"/>
<path d="M26.25 12.8125C26.7678 12.8125 27.1875 13.2322 27.1875 13.75C27.1875 14.2246 26.8348 14.6169 26.3772 14.6789L26.25 14.6875H25.125C24.6072 14.6875 24.1875 14.2678 24.1875 13.75C24.1875 13.2754 24.5402 12.8831 24.9978 12.8211L25.125 12.8125H26.25Z" fill="#4E02E4"/>
<path d="M4.875 12.8125C5.39277 12.8125 5.8125 13.2322 5.8125 13.75C5.8125 14.2246 5.45981 14.6169 5.00221 14.6789L4.875 14.6875H3.75C3.23223 14.6875 2.8125 14.2678 2.8125 13.75C2.8125 13.2754 3.16519 12.8831 3.62279 12.8211L3.75 12.8125H4.875Z" fill="#4E02E4"/>
<path d="M6.38201 5.132C6.71485 4.79917 7.23568 4.76892 7.60269 5.04124L7.70784 5.13201L8.50333 5.92751C8.86944 6.29363 8.86944 6.88723 8.50332 7.25334C8.17048 7.58617 7.64965 7.61642 7.28264 7.3441L7.17749 7.25333L6.382 6.45783C6.01589 6.09171 6.0159 5.49812 6.38201 5.132Z" fill="#4E02E4"/>
<path d="M15 1.5625C15.4746 1.5625 15.8669 1.91519 15.9289 2.37279L15.9375 2.5V3.625C15.9375 4.14277 15.5178 4.5625 15 4.5625C14.5254 4.5625 14.1331 4.20981 14.0711 3.75221L14.0625 3.625V2.5C14.0625 1.98223 14.4822 1.5625 15 1.5625Z" fill="#4E02E4"/>
<path d="M15.0041 7.18755C15.5218 7.18951 15.94 7.61082 15.938 8.12859C15.9361 8.64635 15.5147 9.06449 14.997 9.06254C12.7149 9.05392 10.6846 10.51 9.96095 12.6743C9.23726 14.8385 9.98337 17.2229 11.8117 18.5887C12.2265 18.8986 12.3115 19.486 12.0017 19.9008C11.6918 20.3156 11.1043 20.4007 10.6895 20.0908C8.2131 18.2409 7.20248 15.0112 8.18273 12.0797C9.16297 9.14811 11.913 7.17587 15.0041 7.18755Z" fill="#4E02E4"/>
<path d="M14.9965 7.18755C18.0875 7.17586 20.8375 9.14804 21.8178 12.0795C22.798 15.011 21.7875 18.2407 19.3112 20.0907C18.8964 20.4006 18.3089 20.3155 17.999 19.9007C17.6891 19.4859 17.7742 18.8984 18.189 18.5886C20.0172 17.2228 20.7633 14.8384 20.0395 12.6742C19.3158 10.5099 17.2856 9.05391 15.0035 9.06254C14.4858 9.0645 14.0645 8.64635 14.0625 8.12859C14.0605 7.61083 14.4787 7.18951 14.9965 7.18755Z" fill="#4E02E4"/>
<path d="M18.75 18.4023C19.2246 18.4023 19.6169 18.755 19.6789 19.2126L19.6875 19.3398V21.2503C19.6875 22.398 18.8036 23.3393 17.6794 23.4306L17.5 23.4378H12.5C11.3523 23.4378 10.411 22.5539 10.3198 21.4297L10.3125 21.2503V19.34C10.3125 18.8222 10.7322 18.4025 11.25 18.4025C11.7246 18.4025 12.1169 18.7552 12.1789 19.2128L12.1875 19.34V21.2503C12.1875 21.3983 12.2903 21.5222 12.4283 21.5546L12.5 21.5628H17.5C17.6479 21.5628 17.7719 21.46 17.8042 21.322L17.8125 21.2503V19.3398C17.8125 18.8221 18.2322 18.4023 18.75 18.4023Z" fill="#4E02E4"/>
<path d="M18.125 25.3125C18.6428 25.3125 19.0625 25.7322 19.0625 26.25C19.0625 26.7246 18.7098 27.1169 18.2522 27.1789L18.125 27.1875H11.875C11.3572 27.1875 10.9375 26.7678 10.9375 26.25C10.9375 25.7754 11.2902 25.3831 11.7478 25.3211L11.875 25.3125H18.125Z" fill="#4E02E4"/>
</svg>
